<svg width="72" height="72" viewBox="0 0 72 72" fill="none" xmlns="http://www.w3.org/2000/svg">
<path d="M11.1097 40.3058H17.5268V45.0425H11.1097V40.3058Z" fill="#FAB700"/>
<path d="M67.7333 27.7589H4.2667C1.9402 27.7589 0.0542812 29.6449 0.0542812 31.9714V67.7877C0.0542812 70.1141 1.9402 72 4.2667 72H67.7333C70.0598 72 71.9457 70.1141 71.9457 67.7876V31.9714C71.9457 29.6449 70.0598 27.7589 67.7333 27.7589ZM17.0432 62.8595H6.61697V58.6471H17.0432V62.8595ZM21.7392 45.7446C21.7392 47.6802 20.1645 49.2549 18.2289 49.2549H10.4075C8.47195 49.2549 6.89723 47.6802 6.89723 45.7446V39.6038C6.89723 37.6682 8.47195 36.0935 10.4075 36.0935H18.2288C20.1644 36.0935 21.7391 37.6682 21.7391 39.6038L21.7392 45.7446ZM33.1564 62.8595H22.7302V58.6471H33.1564V62.8595ZM49.2698 62.8595H38.8436V58.6471H49.2698V62.8595ZM65.383 62.8595H54.9568V58.6471H65.383V62.8595ZM56.6028 10.2327L47.604 1.23383C45.9589 -0.411197 43.2918 -0.411197 41.6467 1.23383L19.334 23.5465H44.0497L56.6028 10.2327ZM56.3441 23.5465L62.9308 16.5607L59.5828 13.2127L49.8392 23.5465H56.3441ZM67.7333 23.5465C68.6381 23.5465 69.5094 23.6916 70.327 23.9569L65.9108 19.5407L62.1338 23.5467L67.7333 23.5465Z" fill="#FAB700"/>
</svg>
