<svg width="80" height="80" viewBox="0 0 80 80" fill="none" xmlns="http://www.w3.org/2000/svg">
<path d="M79.5312 29.0625L75.3356 23.4684L73.0028 39.7984C72.7892 41.2944 72.0828 42.7069 71.0139 43.7756L42.2878 72.5019C39.7822 75.0078 36.4469 76.388 32.8966 76.388C31.8497 76.3879 30.8064 76.2652 29.7881 76.0224C31.3162 78.4114 33.9908 80 37.0312 80H71.4062C76.1448 80 80 76.1449 80 71.4063V30.4688C80 29.9617 79.8355 29.4683 79.5312 29.0625Z" fill="#FAB700"/>
<path d="M48.3645 38.938C49.6589 38.938 50.7083 37.8887 50.7083 36.5942C50.7083 35.2998 49.6589 34.2505 48.3645 34.2505C47.0701 34.2505 46.0208 35.2998 46.0208 36.5942C46.0208 37.8887 47.0701 38.938 48.3645 38.938Z" fill="#FAB700"/>
<path d="M21.848 38.938C23.1424 38.938 24.1917 37.8887 24.1917 36.5942C24.1917 35.2998 23.1424 34.2505 21.848 34.2505C20.5535 34.2505 19.5042 35.2998 19.5042 36.5942C19.5042 37.8887 20.5535 38.938 21.848 38.938Z" fill="#FAB700"/>
<path d="M38.9733 69.1873L67.6995 40.4611C68.0581 40.1025 68.2907 39.6373 68.3625 39.1353L71.6772 15.9333C71.7286 15.5731 71.6955 15.2058 71.5804 14.8606C71.4654 14.5155 71.2715 14.2018 71.0142 13.9445L66.0423 8.97265L59.4133 15.6019L61.0706 17.2592C61.9859 18.1744 61.9859 19.6584 61.0706 20.5737C60.613 21.0314 60.0131 21.2603 59.4134 21.2603C58.8137 21.2603 58.2137 21.0314 57.7562 20.5737L51.127 13.9445C50.2117 13.0294 50.2117 11.5453 51.127 10.63C52.0422 9.71484 53.5262 9.71484 54.4416 10.63L56.0989 12.2873L62.728 5.65812L57.7561 0.686246C57.4987 0.429111 57.185 0.235358 56.8399 0.120298C56.4947 0.00523718 56.1275 -0.0279777 55.7673 0.0232773L32.5652 3.33796C32.0631 3.40971 31.5979 3.64234 31.2394 4.00093L2.51312 32.7272C-0.837665 36.0778 -0.837665 41.53 2.51312 44.8806L26.8198 69.1873C28.4951 70.8628 30.6959 71.7003 32.8966 71.7003C35.0972 71.7003 37.298 70.8628 38.9733 69.1873ZM48.3645 29.563C52.2416 29.563 55.3958 32.7172 55.3958 36.5942C55.3958 40.4712 52.2416 43.6255 48.3645 43.6255C44.4875 43.6255 41.3333 40.4712 41.3333 36.5942C41.3333 32.7172 44.4875 29.563 48.3645 29.563ZM21.848 43.6255C17.9709 43.6255 14.8167 40.4712 14.8167 36.5942C14.8167 32.7172 17.9709 29.563 21.848 29.563C25.725 29.563 28.8792 32.7172 28.8792 36.5942C28.8792 40.4712 25.7251 43.6255 21.848 43.6255ZM29.5823 55.5114C29.3367 55.5114 29.0867 55.4725 28.8409 55.3906C27.613 54.9812 26.9494 53.6541 27.3586 52.4259L38.407 19.2802C38.8164 18.0522 40.1437 17.3886 41.3717 17.7978C42.5997 18.2072 43.2633 19.5344 42.8541 20.7625L31.8056 53.9083C31.4781 54.8902 30.5636 55.5114 29.5823 55.5114Z" fill="#FAB700"/>
<path d="M71.0139 4.00093C71.9292 3.08577 71.9292 1.60171 71.0139 0.686398C70.0988 -0.228759 68.6147 -0.228759 67.6994 0.686398L62.7277 5.65827L66.0422 8.9728L71.0139 4.00093Z" fill="#FAB700"/>
</svg>
