<svg width="80" height="80" viewBox="0 0 80 80" fill="none" xmlns="http://www.w3.org/2000/svg">
<path d="M14.7451 54.902V80H55.2157V54.902H14.7451ZM26.1961 70.1177H21.1765V65.4118H26.1961V70.1177ZM48.7843 70.1177H43.7647V65.4118H48.7843V70.1177ZM37.4902 70.1177H32.4706V65.4118H37.4902V70.1177Z" fill="#FAB700"/>
<path d="M41.4117 31.1137V50.1961H59.9215V80H69.9608V14.5851C60.1104 20.2877 57.669 21.7007 41.4117 31.1137ZM51.2941 42.3529V37.647H60.0784V42.3529H51.2941Z" fill="#FAB700"/>
<path d="M47.6863 0V12.549H32.3137V0H0V80H10.0392V50.1961H32.3137V17.2549H47.6863V22.0439C68.3812 10.0689 20.4998 37.7831 74.6667 6.42353V80H80V0H47.6863ZM22.4314 44.8627H9.88235V40.1569H22.4314V44.8627ZM22.4314 34.8235H9.88235V30.1176H22.4314V34.8235ZM22.4314 24.7843H9.88235V20.0784H22.4314V24.7843ZM22.4314 14.7451H9.88235V10.0392H22.4314V14.7451Z" fill="#FAB700"/>
</svg>
