<svg width="80" height="76" viewBox="0 0 80 76" fill="none" xmlns="http://www.w3.org/2000/svg">
<path d="M29.2833 43.6427C24.235 43.2103 20.2581 38.9658 20.2581 33.8075C20.2581 28.3628 24.6877 23.9333 30.1323 23.9333C33.487 23.9333 36.4545 25.6164 38.2398 28.181H75.1041C72.8347 21.0831 68.6202 14.7056 62.8933 9.8258C55.6312 3.63783 46.3773 0.229858 36.8364 0.229858C26.997 0.229858 17.7467 4.06158 10.7892 11.0191C8.60703 13.2013 6.73281 15.6091 5.18734 18.1897H9.78172V22.8775H2.82172C2.10105 24.6057 1.51478 26.3868 1.06813 28.2052H9.78172V32.893H0.235C0.0790367 34.2786 0.000581205 35.6719 0 37.0663C0 48.3228 3.24125 59.262 9.37328 68.7016L9.41328 68.7633L74.2191 75.7703C76.2953 73.4022 77.8922 70.6016 78.8648 67.6086C79.9033 64.413 80.2356 60.977 79.8356 57.6397H32.7238L29.2833 43.6427Z" fill="#FAB700"/>
<path d="M30.1323 38.9939C32.9967 38.9939 35.3187 36.6719 35.3187 33.8075C35.3187 30.9431 32.9967 28.6211 30.1323 28.6211C27.268 28.6211 24.9459 30.9431 24.9459 33.8075C24.9459 36.6719 27.268 38.9939 30.1323 38.9939Z" fill="#FAB700"/>
<path d="M42.7211 52.9517L38.9171 38.3072C37.8547 40.3727 36.0874 42.018 33.9329 42.92L36.3986 52.9517H42.7211ZM76.4994 34.0086C76.4373 33.6277 76.3697 33.2477 76.2966 32.8688H42.3477L47.5644 52.9517H79.1796L76.4994 34.0086Z" fill="#FAB700"/>
</svg>
