<svg width="229" height="70" viewBox="0 0 229 70" fill="none" xmlns="http://www.w3.org/2000/svg">
<g clip-path="url(#clip0_65_1262)">
<mask id="mask0_65_1262" style="mask-type:luminance" maskUnits="userSpaceOnUse" x="0" y="0" width="229" height="70">
<path d="M228.734 0H0V70H228.734V0Z" fill="white"/>
</mask>
<g mask="url(#mask0_65_1262)">
<path fill-rule="evenodd" clip-rule="evenodd" d="M1.12841 51.8334H0L7.9984 49.1667H9.12681L1.12841 51.8334ZM29.77 51.8H23.597L31.5622 49.1334H37.7352L29.77 51.8ZM215.99 51.5667L215.891 48.9L41.22 49.1L33.3212 51.7667L215.99 51.5667ZM19.2825 51.8L27.3472 49.1334H23.0991L15.0343 51.8H19.2825ZM10.0893 51.8L18.1541 49.1334H15.6981L7.63333 51.8H10.0893Z" fill="#FAB700"/>
<path fill-rule="evenodd" clip-rule="evenodd" d="M37.4033 69.7333C37.868 69.7333 38.233 69.3666 38.233 68.9333V64.6666H40.1248C41.2532 64.6666 41.917 65.4 42.5807 66.4666L44.1406 68.9333C44.4393 69.4 45.0367 69.7666 45.5013 69.7666H47.5258C47.9904 69.7666 48.1232 69.4 47.8245 68.9333L45.6341 65.4333C45.1362 64.6666 44.2401 63.5666 43.3772 63.3666C44.6052 63.0666 45.2026 62.2333 45.6341 61.4333L47.5258 57.9666C47.7913 57.4666 47.6917 57.1333 47.2603 57.1333H45.2358C44.7712 57.1333 44.3065 57.4 43.9746 57.9666L42.6139 60.4C41.917 61.6666 41.1868 62.2 40.158 62.2H38.2662V57.9666C38.2662 57.5 37.9012 57.1333 37.4365 57.1333H35.7771C35.3125 57.1333 34.9474 57.5 34.9474 57.9666V68.9C34.9474 69.3666 35.3125 69.7333 35.7771 69.7333H37.4033ZM49.1852 68.9C49.1852 69.3666 49.5503 69.7333 50.0149 69.7333H57.5487C60.0046 69.7333 62.1951 68.4666 62.1951 65.9333C62.1951 64.7333 61.6972 63.6333 60.5025 63C61.3986 62.2666 61.6972 61.5666 61.6972 60.6666C61.6972 58.0333 59.3741 57.0666 57.1504 57.0666H50.0149C49.5503 57.0666 49.1852 57.4333 49.1852 57.9V68.9ZM57.1836 59.4666C57.9138 59.4666 58.4116 59.9333 58.4116 60.7333C58.4116 61.5666 57.9138 62 57.1836 62H52.5041V59.4666H57.1836ZM57.5155 64.3333C58.4448 64.3333 58.9094 64.9333 58.9094 65.8333C58.9094 66.7333 58.4448 67.3333 57.5155 67.3333H52.5041V64.3333H57.5155ZM62.9584 68.9333C62.8256 69.4 63.0912 69.7333 63.5558 69.7333H65.2816C65.7462 69.7333 66.2109 69.3666 66.3104 68.9L66.9078 66.6666H73.1472V68.9C73.1472 69.3666 73.5123 69.7333 73.977 69.7333H75.6364C76.101 69.7333 76.4661 69.3666 76.4661 68.9333V57.9333C76.4661 57.5 76.1342 57.1333 75.7028 57.1333H70.99C68.4345 57.1333 65.9122 57.7666 65.182 60.5666L62.9584 68.9333ZM68.3349 61.3666C68.6336 60.2666 69.5297 59.6 70.6581 59.6H73.1472V64.2H67.5716L68.3349 61.3666ZM79.2207 67.2333H78.5238C78.0591 67.2333 77.6941 67.6 77.6941 68.0333V68.8666C77.6941 69.3333 78.0591 69.7 78.5238 69.7H91.2681C91.7328 69.7 92.0978 69.3333 92.0978 68.9V57.9C92.0978 57.4333 91.7328 57.1 91.2681 57.1H86.5222C83.9667 57.1 81.5107 57.7333 80.847 60.5666L79.2207 67.2333ZM84.0662 61.3C84.3317 60.2333 85.0619 59.5666 86.1903 59.5666H88.8122V67.2333H82.6059L84.0662 61.3ZM101.125 59.5666C102.851 59.5666 104.112 59.9333 104.112 62C104.112 64.0666 102.851 64.4333 101.125 64.4333H97.939V59.6H101.125V59.5666ZM95.4499 57.1C94.9852 57.1 94.6533 57.4666 94.6533 57.9333V68.9C94.6533 69.3666 95.0184 69.7333 95.483 69.7333H97.1425C97.6071 69.7333 97.9722 69.3666 97.9722 68.9V66.9333H102.187C105.539 66.9333 107.497 65.4333 107.497 62.0333C107.497 58.6333 105.539 57.1333 102.187 57.1333H95.4499V57.1ZM115.363 59.2333C118.051 59.2333 119.113 60.7333 119.113 63.4333C119.113 66.1333 118.051 67.6333 115.363 67.6333C112.675 67.6333 111.613 66.1333 111.613 63.4333C111.613 60.7333 112.675 59.2333 115.363 59.2333ZM108.327 63.4333C108.327 68.1333 110.882 70 115.396 70C119.877 70 122.465 68.1 122.465 63.4333C122.465 58.7333 119.91 56.8666 115.396 56.8666C110.882 56.8333 108.327 58.7333 108.327 63.4333ZM137.666 69.7333C138.13 69.7333 138.495 69.3666 138.495 68.9V68.0666C138.495 67.6 138.13 67.2333 137.666 67.2333H136.703V57.9C136.703 57.4333 136.338 57.0666 135.873 57.0666H134.214C133.749 57.0666 133.384 57.4333 133.384 57.8666V67.2H127.51V57.8666C127.51 57.4 127.145 57.0333 126.68 57.0333H125.021C124.556 57.0333 124.191 57.4 124.191 57.8333V68.8333C124.191 69.3 124.556 69.6666 125.021 69.6666H137.666V69.7333ZM150.675 57.1H140.586C140.121 57.1 139.756 57.4666 139.756 57.9V68.8666C139.756 69.3333 140.121 69.7 140.586 69.7H150.642C151.107 69.7 151.472 69.3333 151.472 68.8666V68.0333C151.472 67.5666 151.107 67.2333 150.675 67.2333H143.042V64.6333H149.613C150.078 64.6333 150.443 64.2666 150.443 63.8V63C150.443 62.5333 150.078 62.1666 149.613 62.1666H143.042V59.6H150.675C151.14 59.6 151.505 59.2333 151.505 58.7666V57.9333C151.505 57.4666 151.14 57.1 150.675 57.1ZM162.457 68.9333C162.457 69.4 162.822 69.7333 163.287 69.7333H164.913C165.378 69.7333 165.743 69.3666 165.743 68.9V57.9333C165.743 57.4666 165.378 57.1 164.913 57.1H163.287C162.822 57.1 162.457 57.4666 162.457 57.9333V61.9H156.417V57.9333C156.417 57.4666 156.052 57.1 155.587 57.1H153.961C153.496 57.1 153.131 57.4666 153.131 57.9333V68.9C153.131 69.3666 153.496 69.7333 153.961 69.7333H155.587C156.052 69.7333 156.417 69.3666 156.417 68.9333V64.4H162.457V68.9333ZM168.033 57.1C167.568 57.1 167.203 57.4666 167.203 57.9333V58.7666C167.203 59.2333 167.568 59.6 168.033 59.6H171.949V68.9333C171.949 69.4 172.314 69.7333 172.779 69.7333H174.438C174.903 69.7333 175.268 69.3666 175.268 68.9333V59.6H179.184C179.649 59.6 180.014 59.2333 180.014 58.7666V57.9333C180.014 57.4666 179.649 57.1 179.184 57.1H168.033ZM187.913 59.5666C189.639 59.5666 190.9 59.9333 190.9 62C190.9 64.0666 189.639 64.4333 187.913 64.4333H184.727V59.6H187.913V59.5666ZM182.238 57.1C181.773 57.1 181.441 57.4666 181.441 57.9333V68.9C181.441 69.3666 181.806 69.7333 182.271 69.7333H183.93C184.395 69.7333 184.76 69.3666 184.76 68.9V66.9333H188.975C192.327 66.9333 194.285 65.4333 194.285 62.0333C194.285 58.6333 192.327 57.1333 188.975 57.1333H182.238V57.1Z" fill="white"/>
<path fill-rule="evenodd" clip-rule="evenodd" d="M83.4357 22.3666C82.2077 20.5 80.15 20.7333 77.4286 20.7C84.0331 38.4667 87.0864 46.5333 87.0864 46.5333C112.11 4.39997 113.704 2.1333 113.704 2.1333C105.008 6.79997 95.0848 24.2 88.3808 34.2C86.5886 29 83.4357 22.3666 83.4357 22.3666Z" fill="#FAB700"/>
<path fill-rule="evenodd" clip-rule="evenodd" d="M75.6696 11.3L77.329 12.9333C79.9177 10.3 83.3361 8.43335 87.1196 7.73335L86.6881 5.43335C82.4068 6.23335 78.5901 8.33335 75.6696 11.3Z" fill="#FAB700"/>
<path fill-rule="evenodd" clip-rule="evenodd" d="M69.397 26.5333H71.7202C71.7202 22.8 72.8486 19.1 75.0722 15.9333L73.1473 14.6C70.6581 18.1666 69.397 22.3666 69.397 26.5333Z" fill="#FAB700"/>
<path fill-rule="evenodd" clip-rule="evenodd" d="M77.4286 42L78.8557 40.1334C75.9019 37.8667 73.6119 34.7334 72.4503 31.0333L70.2267 31.7667C71.5542 35.9334 74.1097 39.4667 77.4286 42Z" fill="#FAB700"/>
<path fill-rule="evenodd" clip-rule="evenodd" d="M90.4052 7.43331C93.8236 6.83331 99.167 8.99997 101.59 11.4666L103.15 9.43331C98.8351 5.99998 94.1555 5.09998 90.4052 5.09998V7.43331Z" fill="#FAB700"/>
<path fill-rule="evenodd" clip-rule="evenodd" d="M106.137 15.8C107.099 17.1 107.298 17.6667 107.763 18.6334H110.285C109.588 16.5667 108.261 14.4667 107.564 13.8L106.137 15.8Z" fill="#FAB700"/>
<path fill-rule="evenodd" clip-rule="evenodd" d="M13.4415 28.4333L9.39248 28.4667L6.27277 41.9668L19.0835 41.9001C20.5438 41.9001 22.4023 41.0001 24.5928 39.2668C25.6548 38.4001 26.6173 37.2334 27.4138 35.8001C28.2103 34.3667 28.8741 32.6 29.3719 30.5333L29.9693 27.8667L25.157 27.9L24.5928 30.4667C24.3273 31.6 24.0286 32.5 23.6967 33.2667C23.3648 34.0001 22.9665 34.6001 22.5019 35.0334C22.0373 35.4667 21.4731 35.7668 20.8757 35.9668C20.2451 36.1667 19.5149 36.2668 18.7184 36.2668H11.6161L13.4415 28.4333ZM25.8207 25.1L30.6331 25.0667L31.8942 19.5333L11.417 19.6667L10.1558 25.1667L25.8539 25.0667L25.8207 25.1ZM34.4828 19.6L33.2548 25.0667L53.732 24.9333L54.96 19.4667L34.4828 19.6ZM52.836 28.6334L53.0351 27.7333L48.9529 27.7667L48.8202 28.4667C48.5879 29 48.2892 29.4667 47.9241 29.8667C47.5922 30.2667 47.1276 30.4667 46.5634 30.5333H46.2979C46.0655 30.5667 45.8332 30.5667 45.6673 30.6C45.4681 30.6 45.3022 30.6334 45.1031 30.6334L37.7021 30.6667L36.4077 36.2668L41.4523 36.2334L43.6096 41.7334L48.256 41.7001L46.0987 36.1334C47.2603 35.9668 48.5878 35.1001 50.0149 33.5334C51.4752 32 52.3713 30.3667 52.836 28.6334ZM33.4871 41.8001L29.3719 41.8334L32.558 27.8667L36.6732 27.8334L33.4871 41.8001ZM58.0465 41.6001L52.4377 41.6667L55.6238 27.7L61.2326 27.6334L58.0465 41.6001ZM62.9584 19.4333L57.5155 19.4667L56.2876 24.9L61.7305 24.8667L62.9584 19.4333Z" fill="white"/>
<path fill-rule="evenodd" clip-rule="evenodd" d="M159.138 19.3667L141.217 19.4667C140.055 19.4667 139.059 19.9667 138.197 21C137.798 21.5 137.433 21.9334 137.101 22.3667C136.803 22.7667 136.537 23.1667 136.371 23.5L135.608 25L157.213 24.8667L159.138 19.3667ZM135.608 41.8668L140.022 27.8001H134.811L130.762 41.9001L135.608 41.8668ZM147.423 41.8334L152.136 41.8001L156.45 27.5667L151.737 27.6L147.423 41.8334ZM139.225 41.9001L143.407 27.8334L148.12 27.8001L143.938 41.8668L139.225 41.9001ZM156.682 41.8001L169.858 41.7334C171.352 41.7334 173.21 40.8334 175.434 39.0667C176.529 38.2001 177.458 37.0334 178.288 35.5667C179.118 34.1001 179.815 32.3334 180.279 30.2667L180.877 27.5667L176.031 27.6L175.467 30.1334C174.969 32.4001 174.239 33.9334 173.31 34.7668C172.381 35.6001 171.086 36.0001 169.46 36.0334L163.088 36.0667L164.283 30.8334C164.415 30.2001 164.581 29.6 164.747 29.0667C164.913 28.5334 165.112 28.0667 165.311 27.6667H160.4C160.034 28.6 159.769 29.6 159.503 30.6667L156.682 41.8001ZM161.063 24.8334L180.844 24.7L182.105 19.1L169.194 19.1667C167.701 19.1667 165.842 20.0667 163.619 21.8334C162.656 22.6334 161.793 23.6334 161.063 24.8334ZM205.403 19.1L184.693 19.2334L183.432 24.7L204.142 24.5667L205.403 19.1ZM186.452 41.4001L191.198 41.4668L194.351 27.4334L189.705 27.4667L186.452 41.4001ZM203.677 41.5001L215.791 41.4334C217.285 41.4334 219.143 40.5334 221.367 38.7668C222.462 37.9001 223.391 36.7334 224.221 35.2668C225.051 33.8001 225.681 32.0334 226.212 29.9667L226.81 27.2667L221.964 27.3001L221.4 29.8334C220.902 32.1 219.774 33.6334 218.844 34.4668C217.915 35.3001 217.052 35.7001 215.426 35.7334L209.85 35.7668L211.908 27.3667L206.93 27.4L203.677 41.5001ZM207.693 24.5334L227.473 24.4L228.735 18.8L215.824 18.8667C214.331 18.8667 212.472 19.7667 210.249 21.5334C209.286 22.3334 208.456 23.3334 207.693 24.5334Z" fill="white"/>
<path fill-rule="evenodd" clip-rule="evenodd" d="M116.79 27.9333L107.829 28C107.962 28.7333 108.858 29.6333 110.517 30.7667C107.862 31.6667 106.302 32.5 105.871 33.2667C105.705 33.5667 105.539 33.9333 105.34 34.3667C105.174 34.8 104.975 35.2667 104.776 35.8333L104.51 36.5667C103.913 38.1 104.046 39.4333 104.942 40.5333C105.805 41.6 107.132 42.1 108.958 42.1L124.357 42L126.481 37L111.911 37.1C110.949 37.1 110.219 36.4333 110.152 35.8667C110.119 35.6667 110.152 35.4333 110.185 35.2667C110.318 34.3 111.115 33.2333 112.243 32.9L123.195 32.8333L124.888 27.9667L116.923 28C116.89 28 116.856 28 116.79 27.9333ZM108.095 24.4L129.999 24.2667L131.725 19.5L116.359 19.6C114.5 19.6 112.774 20.2 111.148 21.3C109.455 22.4333 108.626 22.9333 108.095 24.4Z" fill="white"/>
<path fill-rule="evenodd" clip-rule="evenodd" d="M90.4384 1.75645e-06C96.711 -0.0333316 102.486 2.2 106.999 5.90001C106.502 6.53334 106.037 7.20001 105.539 7.86667C101.457 4.43334 96.18 2.4 90.4716 2.43333C77.5945 2.5 67.2397 13.0667 67.3061 26C67.3725 38.9334 77.8932 49.3334 90.7703 49.2667C91.2017 49.2667 91.6664 49.2334 92.0978 49.2334V51.7001C91.6664 51.7334 91.2017 51.7334 90.7703 51.7334C76.5325 51.8334 64.9497 40.3 64.8501 26.0333C64.7506 11.7333 76.2338 0.100002 90.4384 1.75645e-06ZM110.584 9.56668C112.376 11.1 114.666 15.3 115.297 18.5667H112.741C111.812 15.7333 111.015 13.9667 109.157 11.7333C109.654 10.9667 110.185 10.2667 110.584 9.56668Z" fill="#FAB700"/>
</g>
</g>
<defs>
<clipPath id="clip0_65_1262">
<rect width="229" height="70" fill="white"/>
</clipPath>
</defs>
</svg>
