<svg width="196" height="60" viewBox="0 0 196 60" fill="none" xmlns="http://www.w3.org/2000/svg">
<g clip-path="url(#clip0_2007_1381)">
<mask id="mask0_2007_1381" style="mask-type:luminance" maskUnits="userSpaceOnUse" x="0" y="0" width="196" height="60">
<path d="M195.773 0H0V60H195.773V0Z" fill="white"/>
</mask>
<g mask="url(#mask0_2007_1381)">
<path fill-rule="evenodd" clip-rule="evenodd" d="M0.965797 44.4286H0L6.8458 42.1429H7.81159L0.965797 44.4286ZM25.48 44.4H20.1965L27.0139 42.1143H32.2974L25.48 44.4ZM184.865 44.2L184.78 41.9143L35.28 42.0857L28.5194 44.3715L184.865 44.2ZM16.5038 44.4L23.4064 42.1143H19.7704L12.8678 44.4H16.5038ZM8.63536 44.4L15.538 42.1143H13.4359L6.53333 44.4H8.63536Z" fill="#FAB700"/>
<path fill-rule="evenodd" clip-rule="evenodd" d="M32.0133 59.7714C32.411 59.7714 32.7235 59.4571 32.7235 59.0857V55.4285H34.3426C35.3084 55.4285 35.8765 56.0571 36.4446 56.9714L37.7797 59.0857C38.0354 59.4857 38.5467 59.7999 38.9444 59.7999H40.6771C41.0748 59.7999 41.1884 59.4857 40.9328 59.0857L39.058 56.0857C38.6319 55.4285 37.8649 54.4857 37.1264 54.3142C38.1774 54.0571 38.6887 53.3428 39.058 52.6571L40.6771 49.6857C40.9044 49.2571 40.8191 48.9714 40.4499 48.9714H38.7171C38.3194 48.9714 37.9218 49.1999 37.6377 49.6857L36.4731 51.7714C35.8765 52.8571 35.2516 53.3142 34.371 53.3142H32.7519V49.6857C32.7519 49.2857 32.4394 48.9714 32.0418 48.9714H30.6215C30.2238 48.9714 29.9113 49.2857 29.9113 49.6857V59.0571C29.9113 59.4571 30.2238 59.7714 30.6215 59.7714H32.0133ZM42.0974 59.0571C42.0974 59.4571 42.4099 59.7714 42.8075 59.7714H49.2557C51.3577 59.7714 53.2325 58.6857 53.2325 56.5142C53.2325 55.4857 52.8064 54.5428 51.7838 53.9999C52.5507 53.3714 52.8064 52.7714 52.8064 51.9999C52.8064 49.7428 50.818 48.9142 48.9148 48.9142H42.8075C42.4099 48.9142 42.0974 49.2285 42.0974 49.6285V59.0571ZM48.9432 50.9714C49.5681 50.9714 49.9942 51.3714 49.9942 52.0571C49.9942 52.7714 49.5681 53.1428 48.9432 53.1428H44.938V50.9714H48.9432ZM49.2273 55.1428C50.0226 55.1428 50.4203 55.6571 50.4203 56.4285C50.4203 57.1999 50.0226 57.7142 49.2273 57.7142H44.938V55.1428H49.2273ZM53.8858 59.0857C53.7722 59.4857 53.9994 59.7714 54.3971 59.7714H55.8742C56.2719 59.7714 56.6696 59.4571 56.7548 59.0571L57.2661 57.1428H62.6064V59.0571C62.6064 59.4571 62.9188 59.7714 63.3165 59.7714H64.7368C65.1345 59.7714 65.447 59.4571 65.447 59.0857V49.6571C65.447 49.2857 65.1629 48.9714 64.7936 48.9714H60.76C58.5728 48.9714 56.4139 49.5142 55.789 51.9142L53.8858 59.0857ZM58.4875 52.5999C58.7432 51.6571 59.5102 51.0857 60.476 51.0857H62.6064V55.0285H57.8342L58.4875 52.5999ZM67.8046 57.6285H67.2081C66.8104 57.6285 66.498 57.9428 66.498 58.3142V59.0285C66.498 59.4285 66.8104 59.7428 67.2081 59.7428H78.116C78.5136 59.7428 78.8261 59.4285 78.8261 59.0571V49.6285C78.8261 49.2285 78.5136 48.9428 78.116 48.9428H74.0539C71.8667 48.9428 69.7647 49.4857 69.1965 51.9142L67.8046 57.6285ZM71.9519 52.5428C72.1791 51.6285 72.8041 51.0571 73.7699 51.0571H76.0139V57.6285H70.702L71.9519 52.5428ZM86.5525 51.0571C88.0296 51.0571 89.109 51.3714 89.109 53.1428C89.109 54.9142 88.0296 55.2285 86.5525 55.2285H83.8255V51.0857H86.5525V51.0571ZM81.6951 48.9428C81.2974 48.9428 81.0133 49.2571 81.0133 49.6571V59.0571C81.0133 59.4571 81.3258 59.7714 81.7235 59.7714H83.1438C83.5415 59.7714 83.8539 59.4571 83.8539 59.0571V57.3714H87.4615C90.3304 57.3714 92.0064 56.0857 92.0064 53.1714C92.0064 50.2571 90.3304 48.9714 87.4615 48.9714H81.6951V48.9428ZM98.7386 50.7714C101.039 50.7714 101.948 52.0571 101.948 54.3714C101.948 56.6857 101.039 57.9714 98.7386 57.9714C96.4377 57.9714 95.5287 56.6857 95.5287 54.3714C95.5287 52.0571 96.4377 50.7714 98.7386 50.7714ZM92.7165 54.3714C92.7165 58.3999 94.9038 59.9999 98.767 59.9999C102.602 59.9999 104.817 58.3714 104.817 54.3714C104.817 50.3428 102.63 48.7428 98.767 48.7428C94.9038 48.7142 92.7165 50.3428 92.7165 54.3714ZM117.827 59.7714C118.225 59.7714 118.537 59.4571 118.537 59.0571V58.3428C118.537 57.9428 118.225 57.6285 117.827 57.6285H117.003V49.6285C117.003 49.2285 116.691 48.9142 116.293 48.9142H114.873C114.475 48.9142 114.163 49.2285 114.163 49.5999V57.5999H109.135V49.5999C109.135 49.1999 108.823 48.8857 108.425 48.8857H107.005C106.607 48.8857 106.295 49.1999 106.295 49.5714V58.9999C106.295 59.3999 106.607 59.7142 107.005 59.7142H117.827V59.7714ZM128.962 48.9428H120.327C119.929 48.9428 119.617 49.2571 119.617 49.6285V59.0285C119.617 59.4285 119.929 59.7428 120.327 59.7428H128.934C129.332 59.7428 129.644 59.4285 129.644 59.0285V58.3142C129.644 57.9142 129.332 57.6285 128.962 57.6285H122.429V55.3999H128.053C128.451 55.3999 128.763 55.0857 128.763 54.6857V53.9999C128.763 53.5999 128.451 53.2857 128.053 53.2857H122.429V51.0857H128.962C129.36 51.0857 129.672 50.7714 129.672 50.3714V49.6571C129.672 49.2571 129.36 48.9428 128.962 48.9428ZM139.046 59.0857C139.046 59.4857 139.359 59.7714 139.757 59.7714H141.148C141.546 59.7714 141.859 59.4571 141.859 59.0571V49.6571C141.859 49.2571 141.546 48.9428 141.148 48.9428H139.757C139.359 48.9428 139.046 49.2571 139.046 49.6571V53.0571H133.877V49.6571C133.877 49.2571 133.564 48.9428 133.166 48.9428H131.774C131.377 48.9428 131.064 49.2571 131.064 49.6571V59.0571C131.064 59.4571 131.377 59.7714 131.774 59.7714H133.166C133.564 59.7714 133.877 59.4571 133.877 59.0857V55.1999H139.046V59.0857ZM143.819 48.9428C143.421 48.9428 143.108 49.2571 143.108 49.6571V50.3714C143.108 50.7714 143.421 51.0857 143.819 51.0857H147.17V59.0857C147.17 59.4857 147.483 59.7714 147.881 59.7714H149.301C149.699 59.7714 150.011 59.4571 150.011 59.0857V51.0857H153.363C153.761 51.0857 154.073 50.7714 154.073 50.3714V49.6571C154.073 49.2571 153.761 48.9428 153.363 48.9428H143.819ZM160.834 51.0571C162.311 51.0571 163.39 51.3714 163.39 53.1428C163.39 54.9142 162.311 55.2285 160.834 55.2285H158.107V51.0857H160.834V51.0571ZM155.976 48.9428C155.579 48.9428 155.295 49.2571 155.295 49.6571V59.0571C155.295 59.4571 155.607 59.7714 156.005 59.7714H157.425C157.823 59.7714 158.135 59.4571 158.135 59.0571V57.3714H161.743C164.612 57.3714 166.288 56.0857 166.288 53.1714C166.288 50.2571 164.612 48.9714 161.743 48.9714H155.976V48.9428Z" fill="black"/>
<path fill-rule="evenodd" clip-rule="evenodd" d="M71.4122 19.1712C70.3612 17.5712 68.6 17.7712 66.2708 17.7427C71.9235 32.9713 74.5368 39.8855 74.5368 39.8855C95.9548 3.77123 97.3183 1.82837 97.3183 1.82837C89.876 5.82837 81.3826 20.7427 75.6447 29.3141C74.1107 24.8569 71.4122 19.1712 71.4122 19.1712Z" fill="#FAB700"/>
<path fill-rule="evenodd" clip-rule="evenodd" d="M64.7652 9.68555L66.1855 11.0856C68.4011 8.82841 71.3269 7.22841 74.5652 6.62841L74.1959 4.65698C70.5316 5.3427 67.2649 7.1427 64.7652 9.68555Z" fill="#FAB700"/>
<path fill-rule="evenodd" clip-rule="evenodd" d="M59.3965 22.7427H61.385C61.385 19.5427 62.3507 16.3713 64.2539 13.657L62.6064 12.5142C60.476 15.5713 59.3965 19.1713 59.3965 22.7427Z" fill="#FAB700"/>
<path fill-rule="evenodd" clip-rule="evenodd" d="M66.2707 35.9999L67.4922 34.3999C64.9641 32.457 63.0041 29.7713 62.0099 26.5999L60.1067 27.2284C61.2429 30.7999 63.4302 33.8285 66.2707 35.9999Z" fill="#FAB700"/>
<path fill-rule="evenodd" clip-rule="evenodd" d="M77.3774 6.37134C80.3032 5.85705 84.8765 7.71419 86.9501 9.82848L88.2852 8.08562C84.5925 5.14277 80.5872 4.37134 77.3774 4.37134V6.37134Z" fill="#FAB700"/>
<path fill-rule="evenodd" clip-rule="evenodd" d="M90.8417 13.5427C91.6655 14.6569 91.8359 15.1427 92.2336 15.9712H94.3925C93.7959 14.1998 92.6597 12.3998 92.0632 11.8284L90.8417 13.5427Z" fill="#FAB700"/>
<path fill-rule="evenodd" clip-rule="evenodd" d="M11.5045 24.3713L8.03898 24.3998L5.36884 35.9713L16.3335 35.9142C17.5833 35.9142 19.1741 35.1428 21.0488 33.657C21.9578 32.9142 22.7816 31.9142 23.4633 30.6856C24.1451 29.457 24.7132 27.9427 25.1393 26.1713L25.6506 23.8856L21.5317 23.9141L21.0488 26.1141C20.8216 27.0856 20.5659 27.857 20.2819 28.5141C19.9978 29.1428 19.657 29.657 19.2593 30.0285C18.8616 30.3999 18.3787 30.657 17.8674 30.8285C17.3277 30.9999 16.7027 31.0856 16.021 31.0856H9.94217L11.5045 24.3713ZM22.0998 21.5141L26.2187 21.4856L27.2981 16.7427L9.77173 16.857L8.69231 21.5713L22.1283 21.4856L22.0998 21.5141ZM29.5137 16.7998L28.4626 21.4856L45.989 21.3713L47.04 16.6856L29.5137 16.7998ZM45.2221 24.5427L45.3925 23.7713L41.8986 23.7998L41.785 24.3998C41.5861 24.857 41.3305 25.257 41.018 25.5998C40.7339 25.9427 40.3363 26.1141 39.8534 26.1713H39.6261C39.4273 26.1998 39.2284 26.1998 39.0864 26.2284C38.916 26.2284 38.7739 26.257 38.6035 26.257L32.269 26.2856L31.1612 31.0856L35.4789 31.057L37.3252 35.7713L41.3021 35.7428L39.4557 30.9713C40.4499 30.8285 41.5861 30.0856 42.8076 28.7428C44.0574 27.4284 44.8244 26.0284 45.2221 24.5427ZM28.6615 35.8285L25.1393 35.857L27.8662 23.8856L31.3884 23.857L28.6615 35.8285ZM49.6818 35.657L44.8812 35.7142L47.6081 23.7427L52.4087 23.6856L49.6818 35.657ZM53.8858 16.657L49.2273 16.6856L48.1763 21.3427L52.8348 21.3141L53.8858 16.657Z" fill="black"/>
<path fill-rule="evenodd" clip-rule="evenodd" d="M136.206 16.6L120.867 16.6857C119.872 16.6857 119.02 17.1143 118.282 18C117.941 18.4285 117.628 18.8 117.344 19.1714C117.089 19.5143 116.861 19.8571 116.719 20.1428L116.066 21.4285L134.558 21.3143L136.206 16.6ZM116.066 35.8857L119.844 23.8285H115.384L111.919 35.9143L116.066 35.8857ZM126.179 35.8571L130.212 35.8286L133.905 23.6285L129.871 23.6571L126.179 35.8571ZM119.162 35.9143L122.741 23.8571L126.775 23.8285L123.196 35.8857L119.162 35.9143ZM134.104 35.8286L145.381 35.7714C146.659 35.7714 148.25 35 150.153 33.4857C151.09 32.7429 151.886 31.7429 152.596 30.4857C153.306 29.2286 153.903 27.7143 154.3 25.9428L154.812 23.6285L150.664 23.6571L150.181 25.8285C149.755 27.7714 149.13 29.0857 148.335 29.8C147.54 30.5143 146.432 30.8571 145.04 30.8857L139.586 30.9143L140.609 26.4285C140.722 25.8857 140.864 25.3714 141.006 24.9143C141.148 24.4571 141.319 24.0571 141.489 23.7143H137.285C136.973 24.5143 136.745 25.3714 136.518 26.2857L134.104 35.8286ZM137.853 21.2857L154.783 21.1714L155.863 16.3714L144.813 16.4285C143.534 16.4285 141.944 17.2 140.041 18.7143C139.217 19.4 138.478 20.2571 137.853 21.2857ZM175.803 16.3714L158.078 16.4857L156.999 21.1714L174.724 21.0571L175.803 16.3714ZM159.584 35.4857L163.646 35.5429L166.344 23.5143L162.368 23.5428L159.584 35.4857ZM174.326 35.5714L184.694 35.5143C185.973 35.5143 187.563 34.7429 189.467 33.2286C190.404 32.4857 191.199 31.4857 191.91 30.2286C192.62 28.9714 193.159 27.4571 193.614 25.6857L194.125 23.3714L189.978 23.4L189.495 25.5714C189.069 27.5143 188.103 28.8286 187.308 29.5429C186.512 30.2571 185.774 30.6 184.382 30.6286L179.61 30.6571L181.371 23.4571L177.11 23.4857L174.326 35.5714ZM177.763 21.0285L194.693 20.9143L195.773 16.1143L184.723 16.1714C183.445 16.1714 181.854 16.9428 179.951 18.4571C179.127 19.1428 178.417 20 177.763 21.0285Z" fill="black"/>
<path fill-rule="evenodd" clip-rule="evenodd" d="M99.96 23.9427L92.2904 23.9998C92.404 24.6284 93.171 25.3998 94.5913 26.3713C92.3188 27.1427 90.9838 27.857 90.6145 28.5141C90.4724 28.7713 90.3304 29.0855 90.16 29.457C90.018 29.8284 89.8475 30.2284 89.6771 30.7141L89.4498 31.3427C88.9385 32.657 89.0522 33.7998 89.8191 34.7427C90.5577 35.657 91.6939 36.0855 93.2562 36.0855L106.437 35.9998L108.254 31.7141L95.7843 31.7998C94.9606 31.7998 94.3356 31.2284 94.2788 30.7427C94.2504 30.5713 94.2788 30.3713 94.3072 30.2284C94.4209 29.3998 95.1026 28.4855 96.0684 28.1998L105.442 28.1427L106.891 23.9713L100.074 23.9998C100.045 23.9998 100.017 23.9998 99.96 23.9427ZM92.5177 20.9141L111.265 20.7998L112.743 16.7141L99.5907 16.7998C98 16.7998 96.5229 17.3141 95.131 18.257C93.6823 19.2284 92.9722 19.657 92.5177 20.9141Z" fill="black"/>
<path fill-rule="evenodd" clip-rule="evenodd" d="M77.4058 -0.000172881C82.7745 -0.0287444 87.7171 1.88554 91.5803 5.05697C91.1542 5.59983 90.7565 6.17126 90.3305 6.74269C86.8365 3.79983 82.32 2.05697 77.4342 2.08554C66.4128 2.14268 57.5502 11.1998 57.607 22.2855C57.6638 33.3713 66.6684 42.2856 77.6899 42.2284C78.0592 42.2284 78.4568 42.1999 78.8261 42.1999V44.3142C78.4568 44.3427 78.0592 44.3427 77.6899 44.3427C65.5038 44.4284 55.5902 34.5427 55.5049 22.3141C55.4197 10.057 65.2481 0.0855414 77.4058 -0.000172881ZM94.6481 8.19983C96.1821 9.51412 98.142 13.1141 98.6818 15.9141H96.4945C95.6992 13.4855 95.0174 11.9713 93.4267 10.057C93.8528 9.39983 94.3073 8.79983 94.6481 8.19983Z" fill="#FAB700"/>
</g>
</g>
<defs>
<clipPath id="clip0_2007_1381">
<rect width="196" height="60" fill="white"/>
</clipPath>
</defs>
</svg>
