<svg width="24" height="25" viewBox="0 0 24 25" fill="none" xmlns="http://www.w3.org/2000/svg">
<path d="M4 4.5H5.62563C6.193 4.5 6.47669 4.5 6.70214 4.62433C6.79511 4.67561 6.87933 4.74136 6.95162 4.81912C7.12692 5.00769 7.19573 5.2829 7.33333 5.83333L7.51493 6.55972C7.616 6.96402 7.66654 7.16617 7.74455 7.33576C8.01534 7.92449 8.5546 8.34553 9.19144 8.46546C9.37488 8.5 9.58326 8.5 10 8.5V8.5" stroke="#2B2B28" stroke-width="2" stroke-linecap="round"/>
<path d="M18 17.5H7.55091C7.40471 17.5 7.33162 17.5 7.27616 17.4938C6.68857 17.428 6.28605 16.8695 6.40945 16.2913C6.42109 16.2367 6.44421 16.1674 6.49044 16.0287V16.0287C6.54177 15.8747 6.56743 15.7977 6.59579 15.7298C6.88607 15.0342 7.54277 14.5608 8.29448 14.5054C8.3679 14.5 8.44906 14.5 8.61137 14.5H14" stroke="#2B2B28" stroke-width="2" stroke-linecap="round" stroke-linejoin="round"/>
<path d="M15.7639 14.5H9.69425C8.71658 14.5 7.8822 13.7932 7.72147 12.8288L7.2911 10.2466C7.13872 9.3323 7.84378 8.5 8.77069 8.5H18.382C19.1253 8.5 19.6088 9.28231 19.2764 9.94721L17.5528 13.3944C17.214 14.072 16.5215 14.5 15.7639 14.5Z" fill="#2B2B28" stroke="#2B2B28" stroke-width="2" stroke-linecap="round"/>
<circle cx="17" cy="20.5" r="1" fill="#2B2B28"/>
<circle cx="9" cy="20.5" r="1" fill="#2B2B28"/>
</svg>
