<svg width="56" height="56" viewBox="0 0 56 56" fill="none" xmlns="http://www.w3.org/2000/svg">
<path fill-rule="evenodd" clip-rule="evenodd" d="M29.333 4.66675V19.0001L29.333 19.0545V19.0546C29.3329 19.4786 29.3328 19.8907 29.3785 20.2306C29.4301 20.6138 29.5556 21.0511 29.9188 21.4143C30.282 21.7775 30.7193 21.903 31.1025 21.9546C31.4424 22.0003 31.8545 22.0002 32.2786 22.0001L32.333 22.0001H46.6663V37.3334C46.6663 43.9331 46.6663 47.2329 44.6161 49.2832C42.5658 51.3334 39.266 51.3334 32.6663 51.3334H23.333C16.7333 51.3334 13.4335 51.3334 11.3833 49.2832C9.33301 47.2329 9.33301 43.9331 9.33301 37.3334V18.6667C9.33301 12.0671 9.33301 8.76725 11.3833 6.717C13.4335 4.66675 16.7333 4.66675 23.333 4.66675H29.333ZM31.333 4.66676V19.0001C31.333 19.4998 31.3351 19.7739 31.3607 19.9641L31.3617 19.9714L31.369 19.9724C31.5592 19.998 31.8333 20.0001 32.333 20.0001H46.6663C46.6659 18.2244 46.6537 17.3077 46.3111 16.4806C45.9559 15.623 45.2815 14.9486 43.9327 13.5998L43.9327 13.5998L43.9327 13.5997L37.7333 7.40042C36.3845 6.05161 35.7101 5.37721 34.8525 5.02198C34.0253 4.67934 33.1087 4.66719 31.333 4.66676ZM19.9997 30.3334C19.9997 29.7811 20.4474 29.3334 20.9997 29.3334H34.9997C35.552 29.3334 35.9997 29.7811 35.9997 30.3334C35.9997 30.8857 35.552 31.3334 34.9997 31.3334H20.9997C20.4474 31.3334 19.9997 30.8857 19.9997 30.3334ZM20.9997 38.6667C20.4474 38.6667 19.9997 39.1145 19.9997 39.6667C19.9997 40.219 20.4474 40.6667 20.9997 40.6667H30.333C30.8853 40.6667 31.333 40.219 31.333 39.6667C31.333 39.1145 30.8853 38.6667 30.333 38.6667H20.9997Z" fill="#FAB700"/>
</svg>
