<svg width="48" height="48" viewBox="0 0 48 48" fill="none" xmlns="http://www.w3.org/2000/svg">
<path fill-rule="evenodd" clip-rule="evenodd" d="M43.8742 7.77466L43 34.0001C41.6765 34.0001 41.0147 34.0001 40.4049 33.7991C40.2165 33.737 40.033 33.661 39.8558 33.5717C39.2825 33.2826 38.8145 32.8146 37.8787 31.8788L34.8284 28.8285C33.4951 27.4952 32.8284 26.8285 32 26.8285C31.1716 26.8285 30.5049 27.4952 29.1716 28.8285L26.8291 31.171C25.8889 32.1112 25.4188 32.5813 25.0111 32.5858C24.7382 32.5889 24.4759 32.4802 24.2851 32.2851C24 31.9936 24 31.3288 24 29.9992V44.0001H36C39.7712 44.0001 41.6569 44.0001 42.8284 42.8285C44 41.657 44 39.7713 44 36.0001V12.0001C44 10.2075 44 8.84099 43.8742 7.77466ZM21.6605 24.0001C20.8823 23.6883 19.8118 23.5813 18.0307 23.4032L11.204 22.7205C7.78024 22.3781 6.06838 22.2069 5.03419 21.0642C4 19.9214 4 18.201 4 14.7602V24.0001H21.6605Z" fill="white"/>
<path d="M22 23H5V12C5 10.0861 5.00212 8.75129 5.13753 7.74416C5.26907 6.76579 5.50966 6.2477 5.87868 5.87868C6.2477 5.50966 6.76579 5.26907 7.74416 5.13753C8.75129 5.00212 10.0861 5 12 5H36C37.9139 5 39.2487 5.00212 40.2558 5.13753C41.2342 5.26907 41.7523 5.50966 42.1213 5.87868C42.4903 6.2477 42.7309 6.76579 42.8625 7.74416C42.9979 8.75129 43 10.0861 43 12V36C43 37.9139 42.9979 39.2487 42.8625 40.2558C42.7309 41.2342 42.4903 41.7523 42.1213 42.1213C41.7523 42.4903 41.2342 42.7309 40.2558 42.8625C39.2487 42.9979 37.9139 43 36 43H25V26L25 25.9456C25.0001 25.5215 25.0002 25.1094 24.9545 24.7695C24.903 24.3863 24.7774 23.949 24.4142 23.5858L23.7071 24.2929L24.4142 23.5858C24.051 23.2226 23.6137 23.097 23.2305 23.0455C22.8906 22.9998 22.4785 22.9999 22.0544 23C22.0363 23 22.0181 23 22 23Z" stroke="white" stroke-width="2"/>
<circle cx="32" cy="16" r="4" fill="white"/>
<path d="M16 32V31H17V32H16ZM6.62469 40.7809C6.19343 41.1259 5.56414 41.056 5.21913 40.6247C4.87412 40.1934 4.94404 39.5641 5.37531 39.2191L6.62469 40.7809ZM15 42V32H17V42H15ZM16 33H6V31H16V33ZM16.6247 32.7809L6.62469 40.7809L5.37531 39.2191L15.3753 31.2191L16.6247 32.7809Z" fill="white"/>
</svg>
