<svg width="63" height="73" viewBox="0 0 63 73" fill="none" xmlns="http://www.w3.org/2000/svg">
<g clip-path="url(#clip0_139_31262)">
<path fill-rule="evenodd" clip-rule="evenodd" d="M37.5157 63.34C49.8102 60.5965 59 49.6214 59 36.5C59 21.3122 46.6878 9 31.5 9C16.3122 9 4 21.3122 4 36.5C4 49.6047 13.1663 60.5684 25.4372 63.3295L31.8887 73.0747L37.5157 63.34Z" fill="#FAB700"/>
<path fill-rule="evenodd" clip-rule="evenodd" d="M25.2185 34.3355C24.2248 32.8228 22.5597 33.0119 20.3574 32.9849C25.7019 47.383 28.1727 53.9202 28.1727 53.9202C48.4226 19.7754 49.7118 17.9385 49.7118 17.9385C42.6753 21.7203 34.6452 35.8213 29.2201 43.9253C27.7699 39.7112 25.2185 34.3355 25.2185 34.3355Z" fill="#2B2B28"/>
<path fill-rule="evenodd" clip-rule="evenodd" d="M18.9336 25.3671L20.2764 26.6908C22.3712 24.5567 25.1375 23.044 28.1991 22.4767L27.85 20.6128C24.3855 21.2611 21.297 22.9629 18.9336 25.3671Z" fill="#2B2B28"/>
<path fill-rule="evenodd" clip-rule="evenodd" d="M13.8574 37.7118H15.7374C15.7374 34.6863 16.6505 31.6878 18.4499 29.1215L16.8922 28.041C14.878 30.9314 13.8574 34.3351 13.8574 37.7118Z" fill="#2B2B28"/>
<path fill-rule="evenodd" clip-rule="evenodd" d="M20.3572 50.2463L21.512 48.7335C19.1218 46.8966 17.2687 44.3574 16.3287 41.3589L14.5293 41.9532C15.6036 45.3299 17.6715 48.1933 20.3572 50.2463Z" fill="#2B2B28"/>
<path fill-rule="evenodd" clip-rule="evenodd" d="M30.8574 22.2337C33.6237 21.7475 37.9476 23.5033 39.9081 25.5023L41.1704 23.8545C37.679 21.0721 33.8922 20.3428 30.8574 20.3428V22.2337Z" fill="#2B2B28"/>
<path fill-rule="evenodd" clip-rule="evenodd" d="M43.5879 29.0139C44.3667 30.0674 44.5279 30.5266 44.9039 31.31H46.945C46.381 29.6352 45.3067 27.9333 44.7427 27.3931L43.5879 29.0139Z" fill="#2B2B28"/>
<path fill-rule="evenodd" clip-rule="evenodd" d="M30.8847 16.2093C35.9606 16.1823 40.6337 17.9922 44.2862 20.9906C43.8834 21.5039 43.5074 22.0442 43.1045 22.5844C39.8011 19.8021 35.5309 18.1542 30.9116 18.1812C20.4912 18.2353 12.1119 26.7985 12.1656 37.2796C12.2194 47.7608 20.7329 56.1889 31.1533 56.1349C31.5024 56.1349 31.8784 56.1079 32.2276 56.1079V58.1069C31.8784 58.1339 31.5024 58.1339 31.1533 58.1339C19.6318 58.2149 10.2588 48.8683 10.1783 37.3066C10.0977 25.718 19.3901 16.2903 30.8847 16.2093ZM47.1867 23.9621C48.637 25.2047 50.4901 28.6084 51.0004 31.2557H48.9324C48.1804 28.9595 47.5359 27.5278 46.0319 25.718C46.4347 25.0967 46.8645 24.5294 47.1867 23.9621Z" fill="#2B2B28"/>
</g>
<defs>
<clipPath id="clip0_139_31262">
<rect width="63" height="73" fill="white"/>
</clipPath>
</defs>
</svg>
