<svg width="63" height="73" viewBox="0 0 63 73" fill="none" xmlns="http://www.w3.org/2000/svg">
<g clip-path="url(#clip0_66_1860)">
<path fill-rule="evenodd" clip-rule="evenodd" d="M37.5157 63.34C49.8102 60.5965 59 49.6214 59 36.5C59 21.3122 46.6878 9 31.5 9C16.3122 9 4 21.3122 4 36.5C4 49.6047 13.1663 60.5684 25.4372 63.3295L31.8887 73.0747L37.5157 63.34Z" fill="#2B2B28"/>
<path fill-rule="evenodd" clip-rule="evenodd" d="M25.2176 34.3355C24.2239 32.8228 22.5588 33.0119 20.3566 32.9849C25.701 47.383 28.1719 53.9202 28.1719 53.9202C48.4218 19.7754 49.7109 17.9385 49.7109 17.9385C42.6744 21.7203 34.6443 35.8213 29.2193 43.9253C27.769 39.7112 25.2176 34.3355 25.2176 34.3355Z" fill="#FAB700"/>
<path fill-rule="evenodd" clip-rule="evenodd" d="M18.9332 25.3674L20.2761 26.691C22.3709 24.557 25.1371 23.0442 28.1988 22.477L27.8496 20.613C24.3851 21.2614 21.2966 22.9632 18.9332 25.3674Z" fill="#FAB700"/>
<path fill-rule="evenodd" clip-rule="evenodd" d="M13.8573 37.712H15.7373C15.7373 34.6865 16.6504 31.688 18.4498 29.1218L16.8921 28.0413C14.8778 30.9317 13.8573 34.3353 13.8573 37.712Z" fill="#FAB700"/>
<path fill-rule="evenodd" clip-rule="evenodd" d="M20.3566 50.2465L21.5114 48.7338C19.1212 46.8969 17.2681 44.3576 16.3281 41.3591L14.5287 41.9534C15.603 45.3301 17.6709 48.1935 20.3566 50.2465Z" fill="#FAB700"/>
<path fill-rule="evenodd" clip-rule="evenodd" d="M30.8575 22.2337C33.6238 21.7475 37.9477 23.5033 39.9082 25.5023L41.1705 23.8545C37.6791 21.0721 33.8923 20.3428 30.8575 20.3428V22.2337Z" fill="#FAB700"/>
<path fill-rule="evenodd" clip-rule="evenodd" d="M43.5875 29.0141C44.3664 30.0676 44.5275 30.5268 44.9035 31.3102H46.9446C46.3806 29.6354 45.3064 27.9336 44.7424 27.3933L43.5875 29.0141Z" fill="#FAB700"/>
<path fill-rule="evenodd" clip-rule="evenodd" d="M30.8844 16.2095C35.9603 16.1825 40.6333 17.9924 44.2858 20.9909C43.883 21.5041 43.507 22.0444 43.1042 22.5847C39.8008 19.8023 35.5306 18.1545 30.9112 18.1815C20.4908 18.2355 12.1116 26.7987 12.1653 37.2799C12.219 47.761 20.7326 56.1892 31.1529 56.1352C31.5021 56.1352 31.8781 56.1081 32.2272 56.1081V58.1071C31.8781 58.1341 31.5021 58.1341 31.1529 58.1341C19.6314 58.2152 10.2585 48.8686 10.1779 37.3069C10.0973 25.7182 19.3897 16.2906 30.8844 16.2095ZM47.1864 23.9623C48.6366 25.2049 50.4897 28.6086 51 31.2559H48.9321C48.1801 28.9598 47.5355 27.5281 46.0315 25.7182C46.4344 25.0969 46.8641 24.5296 47.1864 23.9623Z" fill="#FAB700"/>
</g>
<defs>
<clipPath id="clip0_66_1860">
<rect width="63" height="73" fill="white"/>
</clipPath>
</defs>
</svg>
