<svg width="48" height="48" viewBox="0 0 48 48" fill="none" xmlns="http://www.w3.org/2000/svg">
<rect x="0.5" y="0.5" width="47" height="47" rx="23.5" stroke="#BDBDBD"/>
<path d="M30 18H18C16.1144 18 15.1716 18 14.5858 18.5858C14 19.1716 14 20.1144 14 22V25C14 25.4714 14 25.7071 14.1464 25.8536C14.2929 26 14.5286 26 15 26H19.7C19.8414 26 19.9121 26 19.9561 25.9561C20 25.9121 20 25.8414 20 25.7V25.5C20 24.5572 20 24.0858 20.2929 23.7929C20.5858 23.5 21.0572 23.5 22 23.5H26C26.9428 23.5 27.4142 23.5 27.7071 23.7929C28 24.0858 28 24.5572 28 25.5V25.7C28 25.8414 28 25.9121 28.0439 25.9561C28.0879 26 28.1586 26 28.3 26H32C32.9428 26 33.4142 26 33.7071 25.7071C34 25.4142 34 24.9428 34 24V22C34 20.1144 34 19.1716 33.4142 18.5858C32.8284 18 31.8856 18 30 18Z" fill="#6C6C6C"/>
<path d="M19 15.7391C19 15.0472 19 14.7013 19.1638 14.4515C19.239 14.3369 19.3369 14.239 19.4515 14.1638C19.7013 14 20.0472 14 20.7391 14H27.2609C27.9528 14 28.2987 14 28.5485 14.1638C28.6631 14.239 28.761 14.3369 28.8362 14.4515C29 14.7013 29 15.0472 29 15.7391C29 15.8429 29 15.8948 28.9754 15.9323C28.9642 15.9495 28.9495 15.9642 28.9323 15.9754C28.8948 16 28.8429 16 28.7391 16H19.2609C19.1571 16 19.1052 16 19.0677 15.9754C19.0505 15.9642 19.0358 15.9495 19.0246 15.9323C19 15.8948 19 15.8429 19 15.7391Z" fill="#6C6C6C"/>
<path fill-rule="evenodd" clip-rule="evenodd" d="M17 32.3371V25C17 24.0572 17 23.5858 17.2929 23.2929C17.5858 23 18.0572 23 19 23L29 23H29C29.9428 23 30.4142 23 30.7071 23.2929C31 23.5858 31 24.0572 31 25V32.3371C31 32.6411 31 32.7931 30.9005 32.8682C30.8011 32.9432 30.655 32.9014 30.3627 32.8179L30.3626 32.8179L30.3626 32.8179L27.6374 32.0392C27.5691 32.0197 27.535 32.01 27.5 32.01C27.465 32.01 27.4309 32.0197 27.3626 32.0392L24.1374 32.9608C24.0691 32.9802 24.035 32.99 24 32.99C23.965 32.99 23.9309 32.9802 23.8626 32.9608L20.6374 32.0392C20.5691 32.0197 20.535 32.01 20.5 32.01C20.465 32.01 20.4309 32.0197 20.3626 32.0392L17.6374 32.8179L17.6374 32.8179L17.6373 32.8179C17.345 32.9014 17.1989 32.9432 17.0995 32.8682C17 32.7931 17 32.6411 17 32.3371ZM21 26C21 25.4477 21.4477 25 22 25L25 25C25.5523 25 26 25.4477 26 26C26 26.5523 25.5523 27 25 27L22 27C21.4477 27 21 26.5523 21 26ZM22 28C21.4477 28 21 28.4477 21 29C21 29.5523 21.4477 30 22 30L26.5 30C27.0523 30 27.5 29.5523 27.5 29C27.5 28.4477 27.0523 28 26.5 28L22 28Z" fill="#6C6C6C"/>
</svg>
