<svg width="25" height="25" viewBox="0 0 25 25" fill="none" xmlns="http://www.w3.org/2000/svg">
<path d="M20.3561 8.41139L23.9849 7.40343C24.359 7.29951 24.5781 6.91195 24.4742 6.53774C24.3702 6.16364 23.9827 5.94449 23.6085 6.04846L19.0976 7.30143C19.0974 7.30152 19.0971 7.30159 19.0969 7.30162L13.2031 8.93873V1.20337C13.2031 0.815057 12.8883 0.500244 12.4999 0.500244C12.1116 0.500244 11.7968 0.815057 11.7968 1.20337V9.32938L5.54163 11.0669L5.54098 11.0671L1.0151 12.3242C0.640991 12.4282 0.421897 12.8157 0.525772 13.1899C0.61221 13.5011 0.894913 13.705 1.20288 13.705C1.26513 13.705 1.32851 13.6966 1.39141 13.6792L4.21263 12.8955L0.600351 18.9165C0.534798 19.0258 0.500174 19.1508 0.500179 19.2783C0.500179 22.1575 2.84266 24.4999 5.72191 24.4999C8.60126 24.4999 10.9437 22.1574 10.9437 19.2783C10.9437 19.1508 10.9091 19.0258 10.8435 18.9165L6.79999 12.1768L17.7686 9.13012L14.1563 15.151C14.0908 15.2603 14.0561 15.3853 14.0561 15.5128C14.0561 18.3921 16.3986 20.7344 19.2778 20.7344C20.6726 20.7344 21.9839 20.1913 22.9702 19.205C23.9565 18.2187 24.4997 16.9074 24.4996 15.5127C24.4997 15.3853 24.4651 15.2602 24.3995 15.151L20.3561 8.41139ZM8.9989 18.5751H2.44512L5.72196 13.1132L8.9989 18.5751ZM16.001 14.8096L19.2779 9.34776L22.5549 14.8096H16.001Z" fill="#2B2B28"/>
</svg>
