<svg width="48" height="48" viewBox="0 0 48 48" fill="none" xmlns="http://www.w3.org/2000/svg">
<rect x="0.5" y="0.5" width="47" height="47" rx="23.5" stroke="#FAB700"/>
<path d="M31.8561 19.9114L35.4849 18.9034C35.8591 18.7995 36.0781 18.4119 35.9742 18.0377C35.8703 17.6636 35.4828 17.4445 35.1085 17.5485L30.5976 18.8014C30.5974 18.8015 30.5971 18.8016 30.5969 18.8016L24.7031 20.4387V12.7034C24.7031 12.3151 24.3883 12.0002 24 12.0002C23.6117 12.0002 23.2968 12.3151 23.2968 12.7034V20.8294L17.0417 22.5669L17.041 22.5671L12.5151 23.8242C12.141 23.9282 11.9219 24.3157 12.0258 24.6899C12.1122 25.0011 12.3949 25.205 12.7029 25.205C12.7652 25.205 12.8285 25.1966 12.8914 25.1792L15.7127 24.3955L12.1004 30.4165C12.0348 30.5258 12.0002 30.6508 12.0002 30.7783C12.0002 33.6575 14.3427 35.9999 17.2219 35.9999C20.1013 35.9999 22.4437 33.6574 22.4437 30.7783C22.4437 30.6508 22.4091 30.5258 22.3435 30.4165L18.3 23.6768L29.2686 20.6301L25.6563 26.651C25.5908 26.7603 25.5562 26.8853 25.5561 27.0128C25.5561 29.8921 27.8986 32.2344 30.7779 32.2344C32.1726 32.2344 33.4839 31.6913 34.4703 30.705C35.4566 29.7187 35.9997 28.4074 35.9996 27.0127C35.9997 26.8853 35.9651 26.7602 35.8995 26.651L31.8561 19.9114ZM20.4989 30.0751H13.9451L17.222 24.6132L20.4989 30.0751ZM27.5011 26.3096L30.778 20.8478L34.0549 26.3096H27.5011Z" fill="#6C6C6C"/>
</svg>
