<svg width="48" height="48" viewBox="0 0 48 48" fill="none" xmlns="http://www.w3.org/2000/svg">
<rect x="0.5" y="0.5" width="47" height="47" rx="23.5" stroke="#BDBDBD"/>
<path d="M30.7904 27.6244C29.62 27.6244 28.5606 28.1086 27.8001 28.8865L21.2269 25.0492C21.3347 24.6785 21.3956 24.2884 21.3956 23.8831C21.3956 23.4968 21.3389 23.1242 21.2409 22.7689L27.7644 19.0732C28.5272 19.8737 29.6008 20.375 30.7912 20.375C33.1 20.375 34.9788 18.497 34.9788 16.187C34.9787 13.8781 33.1 12 30.7912 12C28.4824 12 26.6036 13.8781 26.6036 16.187C26.6036 16.5733 26.6602 16.946 26.7588 17.302L20.2353 20.9981C19.4725 20.1974 18.3987 19.6961 17.2085 19.6961C14.8996 19.6961 13.0215 21.5741 13.0215 23.8838C13.0215 26.1927 14.8996 28.071 17.2085 28.071C18.3798 28.071 19.4383 27.5868 20.1996 26.8088L26.772 30.6462C26.6647 31.0173 26.6032 31.4082 26.6032 31.8127C26.6032 34.1222 28.4819 35.9999 30.7904 35.9999C33.0995 35.9999 34.9783 34.1222 34.9783 31.8127C34.9784 29.5028 33.0996 27.6244 30.7904 27.6244Z" fill="#6C6C6C"/>
</svg>
