<svg width="48" height="48" viewBox="0 0 48 48" fill="none" xmlns="http://www.w3.org/2000/svg">
<rect x="0.5" y="47.5" width="47" height="47" rx="23.5" transform="rotate(-90 0.5 47.5)" fill="white" fill-opacity="0.8"/>
<rect x="0.5" y="47.5" width="47" height="47" rx="23.5" transform="rotate(-90 0.5 47.5)" stroke="#6C6C6C"/>
<path d="M24 32L23.2929 32.7071L24 33.4142L24.7071 32.7071L24 32ZM25 17C25 16.4477 24.5523 16 24 16C23.4477 16 23 16.4477 23 17L25 17ZM17.2929 26.7071L23.2929 32.7071L24.7071 31.2929L18.7071 25.2929L17.2929 26.7071ZM24.7071 32.7071L30.7071 26.7071L29.2929 25.2929L23.2929 31.2929L24.7071 32.7071ZM25 32L25 17L23 17L23 32L25 32Z" fill="#2B2B28"/>
</svg>
