<svg width="25" height="24" viewBox="0 0 25 24" fill="none" xmlns="http://www.w3.org/2000/svg">
<g clip-path="url(#clip0_2007_1370)">
<circle cx="12.5" cy="12" r="12" fill="#9A9EA6"/>
<path d="M20.4152 15.6798C20.3958 15.638 20.3777 15.6034 20.361 15.5756C20.0834 15.0757 19.5529 14.462 18.7698 13.7345L18.7533 13.7178L18.745 13.7096L18.7366 13.7013H18.7282C18.3728 13.3625 18.1478 13.1347 18.0535 13.018C17.8811 12.7959 17.8425 12.571 17.9367 12.3432C18.0033 12.171 18.2534 11.8075 18.6865 11.252C18.9143 10.9576 19.0947 10.7217 19.2279 10.5439C20.1888 9.26652 20.6053 8.45023 20.4775 8.09475L20.4279 8.01169C20.3946 7.96167 20.3085 7.91592 20.1698 7.8742C20.0308 7.83256 19.8531 7.82568 19.6365 7.85342L17.2373 7.87C17.1985 7.85622 17.143 7.85751 17.0707 7.8742C16.9985 7.89089 16.9623 7.89926 16.9623 7.89926L16.9206 7.92012L16.8874 7.94519C16.8597 7.96176 16.8291 7.99091 16.7958 8.03258C16.7626 8.0741 16.7348 8.12282 16.7127 8.17835C16.4515 8.85035 16.1545 9.47514 15.8212 10.0527C15.6157 10.3971 15.427 10.6955 15.2546 10.9482C15.0825 11.2009 14.9381 11.387 14.8215 11.5063C14.7048 11.6257 14.5995 11.7214 14.5049 11.7937C14.4105 11.866 14.3384 11.8965 14.2884 11.8854C14.2384 11.8742 14.1913 11.8631 14.1467 11.852C14.069 11.802 14.0065 11.734 13.9593 11.6479C13.912 11.5618 13.8801 11.4535 13.8635 11.323C13.8469 11.1924 13.8371 11.08 13.8343 10.9856C13.8317 10.8913 13.8329 10.7578 13.8385 10.5857C13.8443 10.4134 13.8469 10.2969 13.8469 10.2358C13.8469 10.0247 13.851 9.79566 13.8593 9.54852C13.8677 9.30138 13.8745 9.10557 13.8802 8.96131C13.8858 8.81691 13.8885 8.66413 13.8885 8.50307C13.8885 8.34201 13.8787 8.2157 13.8593 8.12402C13.8401 8.03246 13.8108 7.94358 13.772 7.85742C13.7331 7.77135 13.6761 7.70476 13.6013 7.65749C13.5263 7.61028 13.4331 7.57282 13.3222 7.54498C13.0278 7.47837 12.653 7.44233 12.1975 7.43673C11.1646 7.42564 10.5008 7.49235 10.2065 7.63675C10.0899 7.69776 9.98433 7.78112 9.88997 7.88657C9.78998 8.0088 9.77603 8.0755 9.84821 8.08647C10.1815 8.13639 10.4174 8.25582 10.5563 8.44463L10.6063 8.54468C10.6452 8.61687 10.6841 8.74467 10.723 8.9279C10.7618 9.11114 10.7869 9.31384 10.7979 9.53589C10.8256 9.94137 10.8256 10.2885 10.7979 10.5772C10.7701 10.8661 10.7439 11.091 10.7188 11.252C10.6937 11.4131 10.6563 11.5436 10.6063 11.6435C10.5563 11.7435 10.523 11.8046 10.5063 11.8268C10.4896 11.8489 10.4757 11.8629 10.4647 11.8684C10.3925 11.8961 10.3175 11.9102 10.2398 11.9102C10.1619 11.9102 10.0676 11.8712 9.95652 11.7934C9.8455 11.7157 9.73028 11.6088 9.61085 11.4727C9.49143 11.3366 9.35674 11.1464 9.20674 10.9021C9.05685 10.6577 8.90133 10.3689 8.74027 10.0357L8.60701 9.79408C8.52371 9.63862 8.40991 9.41226 8.26551 9.1152C8.12102 8.81802 7.99331 8.53056 7.88229 8.25287C7.83791 8.13625 7.77124 8.04746 7.68239 7.98636L7.64069 7.96129C7.61297 7.93912 7.56848 7.91557 7.50744 7.89048C7.44631 7.86542 7.38253 7.84744 7.31582 7.83638L5.03326 7.85296C4.80001 7.85296 4.64175 7.9058 4.55841 8.01133L4.52506 8.06126C4.5084 8.08906 4.5 8.13347 4.5 8.1946C4.5 8.2557 4.51666 8.33069 4.55001 8.41948C4.88322 9.20262 5.24559 9.95789 5.6371 10.6854C6.02861 11.4129 6.36882 11.999 6.65754 12.443C6.94631 12.8874 7.24066 13.3067 7.54058 13.7009C7.8405 14.0953 8.03903 14.348 8.13617 14.459C8.23342 14.5702 8.3098 14.6534 8.36533 14.7089L8.57363 14.9088C8.70692 15.0421 8.90264 15.2018 9.1609 15.3878C9.41921 15.5739 9.70518 15.7572 10.019 15.9378C10.3328 16.1182 10.6979 16.2653 11.1145 16.3792C11.531 16.4931 11.9364 16.5388 12.3307 16.5168H13.2888C13.4831 16.5 13.6303 16.4389 13.7303 16.3334L13.7635 16.2917C13.7858 16.2585 13.8066 16.207 13.8259 16.1377C13.8454 16.0683 13.8551 15.9918 13.8551 15.9087C13.8494 15.6699 13.8675 15.4547 13.9091 15.2631C13.9506 15.0716 13.9979 14.9272 14.0509 14.8299C14.1038 14.7328 14.1635 14.6508 14.2299 14.5843C14.2965 14.5177 14.3439 14.4774 14.3718 14.4635C14.3994 14.4495 14.4215 14.44 14.4382 14.4343C14.5715 14.3899 14.7283 14.4329 14.909 14.5636C15.0895 14.6941 15.2588 14.8552 15.4172 15.0467C15.5755 15.2384 15.7657 15.4535 15.9878 15.6923C16.21 15.9311 16.4044 16.1087 16.5709 16.2255L16.7375 16.3254C16.8487 16.3921 16.9931 16.4532 17.1708 16.5088C17.3483 16.5643 17.5037 16.5781 17.6372 16.5504L19.7698 16.5171C19.9807 16.5171 20.1448 16.4822 20.2612 16.4129C20.3779 16.3435 20.4472 16.267 20.4695 16.1838C20.4918 16.1006 20.493 16.0061 20.4738 15.9005C20.454 15.7951 20.4346 15.7214 20.4152 15.6798Z" fill="white"/>
</g>
<defs>
<clipPath id="clip0_2007_1370">
<rect width="24" height="24" fill="white" transform="translate(0.5)"/>
</clipPath>
</defs>
</svg>
