<svg width="25" height="24" viewBox="0 0 25 24" fill="none" xmlns="http://www.w3.org/2000/svg">
<g clip-path="url(#clip0_2007_1367)">
<circle cx="12.5" cy="12" r="12" fill="#9A9EA6"/>
<path d="M12.5001 3.71973C7.93458 3.71973 4.2201 7.43421 4.2201 11.9997C4.2201 13.4253 4.58838 14.8272 5.28678 16.0641L4.23342 19.8225C4.19886 19.946 4.23234 20.0785 4.32162 20.1703C4.39038 20.2412 4.48398 20.2797 4.5801 20.2797C4.6089 20.2797 4.63806 20.2761 4.6665 20.2693L8.58906 19.2976C9.78678 19.9406 11.1357 20.2797 12.5001 20.2797C17.0656 20.2797 20.7801 16.5652 20.7801 11.9997C20.7801 7.43421 17.0656 3.71973 12.5001 3.71973ZM16.6653 14.9215C16.4882 15.4118 15.6386 15.8593 15.2303 15.9194C14.8639 15.973 14.4002 15.9961 13.8911 15.8362C13.5826 15.739 13.1866 15.6102 12.6794 15.3938C10.5471 14.4844 9.15462 12.3644 9.04806 12.2244C8.94186 12.0843 8.1801 11.0864 8.1801 10.0536C8.1801 9.02073 8.7291 8.51277 8.92422 8.30253C9.11934 8.09229 9.34938 8.03973 9.49122 8.03973C9.63306 8.03973 9.77454 8.04153 9.89874 8.04729C10.0294 8.05377 10.2047 7.99797 10.3772 8.40765C10.5543 8.82813 10.9795 9.86097 11.032 9.96645C11.0853 10.0716 11.1206 10.1943 11.05 10.3344C10.9795 10.4744 10.9442 10.5619 10.8376 10.6846C10.7311 10.8074 10.6144 10.9582 10.5187 11.0526C10.4121 11.1573 10.3016 11.2707 10.4254 11.481C10.5493 11.6912 10.9759 12.3784 11.608 12.935C12.4198 13.65 13.1049 13.8717 13.3173 13.9768C13.5297 14.082 13.6539 14.0643 13.7777 13.9243C13.9016 13.7839 14.3091 13.3112 14.4506 13.1013C14.5921 12.8914 14.7339 12.926 14.929 12.9962C15.1241 13.066 16.1692 13.5736 16.3816 13.6788C16.594 13.7839 16.7359 13.8364 16.7891 13.9239C16.8424 14.011 16.8424 14.4315 16.6653 14.9215Z" fill="white"/>
</g>
<defs>
<clipPath id="clip0_2007_1367">
<rect width="24" height="24" fill="white" transform="translate(0.5)"/>
</clipPath>
</defs>
</svg>
