<svg width="28" height="20" viewBox="0 0 28 20" fill="none" xmlns="http://www.w3.org/2000/svg">
<path d="M22.7045 0H5.2955C4.59979 -1.51858e-07 3.9109 0.136999 3.26819 0.403169C2.62548 0.669339 2.04156 1.05946 1.54978 1.55124C1.058 2.04303 0.66801 2.62683 0.402092 3.2693C0.136174 3.91177 -0.000458664 4.6003 1.15675e-06 5.29556V14.7044C-0.000458664 15.3997 0.136174 16.0882 0.402092 16.7307C0.66801 17.3732 1.058 17.957 1.54978 18.4488C2.04156 18.9405 2.62548 19.3307 3.26819 19.5968C3.9109 19.863 4.59979 20 5.2955 20H22.7045C23.4002 20 24.0891 19.863 24.7318 19.5968C25.3745 19.3307 25.9584 18.9405 26.4502 18.4488C26.942 17.957 27.332 17.3732 27.5979 16.7307C27.8638 16.0882 28.0005 15.3997 28 14.7044V5.29556C28.0005 4.6003 27.8638 3.91177 27.5979 3.2693C27.332 2.62683 26.942 2.04303 26.4502 1.55124C25.9584 1.05946 25.3745 0.669339 24.7318 0.403169C24.0891 0.136999 23.4002 -1.51858e-07 22.7045 0ZM10.311 14.2882V5.71179L17.689 10L10.311 14.2882Z" fill="white"/>
</svg>
