<svg width="69" height="17" viewBox="0 0 69 17" fill="none" xmlns="http://www.w3.org/2000/svg">
<mask id="mask0_2007_182" style="mask-type:luminance" maskUnits="userSpaceOnUse" x="0" y="0" width="69" height="17">
<path d="M68.3118 0.328125H0.796875V16.6442H68.3118V0.328125Z" fill="white"/>
</mask>
<g mask="url(#mask0_2007_182)">
<path d="M66.0703 5.21289L64.5535 8.91081C64.5535 8.96219 64.5012 9.01356 64.5012 9.0649L64.4488 9.16762L64.3965 9.0649C64.3965 9.01356 64.3441 8.96219 64.3441 8.91081L62.8274 5.21289H60.8398L63.4549 11.5816L62.3566 13.9955H64.3441L68.0055 5.21289H66.0703Z" fill="white"/>
<path d="M51.4211 5.57352C51.055 5.3167 50.6365 5.16264 50.1134 5.11126C49.2241 5.00854 48.3872 5.3167 47.8641 5.93305V5.21398H46.0859V11.5827H47.8641V8.24424C47.8641 7.47383 48.0211 7.31977 48.1258 7.11434C48.3349 6.7548 48.7533 6.54936 49.2241 6.6007C49.6949 6.6007 50.1657 6.80618 50.3748 7.16568C50.5318 7.42249 50.5318 7.73065 50.5318 7.93609C50.5318 8.50106 50.5318 11.5827 50.5318 11.5827H52.3103V7.73065C52.3103 6.70346 51.9962 6.03577 51.4211 5.57352Z" fill="white"/>
<path d="M42.6862 5.26451C41.7973 4.95635 40.8557 5.0077 39.9664 5.41861C39.3389 5.67539 38.8681 6.13764 38.502 6.70261C38.1879 7.21621 38.0312 7.78118 38.0312 8.44883C38.0312 9.11653 38.1879 9.6815 38.502 10.1951C38.8158 10.7087 39.2342 11.0682 39.7574 11.3764C40.2802 11.6332 40.908 11.7873 41.4832 11.7873C41.7973 11.7873 42.111 11.7359 42.4248 11.6845C42.6862 11.6332 42.9479 11.5305 43.2093 11.3764C43.7325 11.0682 44.1509 10.7087 44.4647 10.2465C44.7784 9.73284 44.9355 9.1679 44.9355 8.50021C44.8831 6.95939 44.0462 5.77811 42.6862 5.26451ZM43.157 8.44883C43.157 9.01381 42.9479 9.47606 42.5818 9.78422C42.3201 10.041 41.954 10.1438 41.4308 10.1438C40.9604 10.1438 40.5939 9.98966 40.2802 9.78422C39.9141 9.47606 39.7574 9.01381 39.705 8.44883C39.705 7.83252 39.9141 7.26755 40.3849 6.90805C40.6463 6.70261 40.9604 6.59989 41.3788 6.59989C41.7973 6.59989 42.111 6.70261 42.3724 6.90805C42.9479 7.26755 43.2093 7.83252 43.157 8.44883Z" fill="white"/>
<path d="M35.993 5.57215C35.6792 5.31534 35.2084 5.16128 34.6854 5.1099C34.5808 5.1099 34.4762 5.1099 34.3716 5.1099C33.6393 5.1099 33.064 5.41806 32.5409 6.03441L32.4363 6.13713H32.2271C32.0702 5.93169 31.9132 5.72621 31.704 5.6235C31.3902 5.31534 30.9718 5.16128 30.4487 5.1099C29.6118 5.00718 28.9319 5.264 28.3565 5.88031V5.21262H26.5781V11.5813H28.3565V8.24288V8.19151C28.3565 7.47247 28.4611 7.31841 28.5657 7.11297C28.7749 6.75344 29.1934 6.548 29.6118 6.548C30.0303 6.548 30.4487 6.75344 30.6579 7.11297C30.8148 7.36975 30.8148 7.67791 30.8148 7.98607V11.5299H32.6455V8.14016C32.6455 7.52385 32.7501 7.26703 32.8547 7.0616C33.0639 6.70206 33.4824 6.548 33.9008 6.548C34.3193 6.548 34.6854 6.80478 34.8946 7.11297C34.9992 7.31841 35.0515 7.57519 35.0515 7.78063C35.0515 7.88335 35.0515 7.93473 35.0515 8.03744V11.5813H36.8299V7.72929C36.8299 7.36975 36.7776 7.0616 36.7253 6.75344C36.6207 6.23985 36.3592 5.82897 35.993 5.57215Z" fill="white"/>
<path d="M59.0596 9.63144C58.7982 9.88826 58.1704 10.3505 57.3335 10.4019C56.6536 10.4019 56.0781 10.2478 55.712 9.83688C55.5553 9.63144 55.3983 9.426 55.3459 9.16923H60.315V9.11785C60.3673 8.86107 60.3673 8.60425 60.3673 8.39882C60.3673 8.19338 60.315 7.88522 60.2103 7.47435C60.0012 6.75528 59.5828 6.19034 59.0073 5.72809C58.3798 5.26583 57.7519 5.11177 57.5952 5.11177C56.2875 4.90634 54.8228 5.47127 54.0906 6.65256C53.5674 7.47435 53.5674 8.2961 53.6198 8.55288C53.6198 8.86107 53.6721 9.83688 54.4567 10.6587C55.3459 11.6345 56.6536 11.6859 57.0721 11.7372C58.8506 11.7886 60.0536 10.71 60.315 10.4532L59.0596 9.63144ZM55.9738 6.96071C56.2352 6.75528 56.5489 6.65256 56.9674 6.65256C57.3858 6.65256 57.6996 6.75528 57.9613 6.96071C58.2227 7.16615 58.4321 7.42297 58.5365 7.7825H55.3459C55.503 7.42297 55.712 7.16615 55.9738 6.96071Z" fill="white"/>
<path d="M14.2337 1.05273C10.2062 1.05273 7.01562 4.23706 7.01562 8.14045C7.01562 12.0438 10.2585 15.2282 14.2337 15.2282C18.2089 15.2282 21.4518 12.0438 21.4518 8.14045C21.5041 4.23706 18.2089 1.05273 14.2337 1.05273ZM14.2337 10.7598C12.7692 10.7598 11.5138 9.57851 11.5138 8.14045C11.5138 6.70235 12.7168 5.52106 14.2337 5.52106C15.7505 5.52106 16.9536 6.70235 16.9536 8.14045C16.9012 9.57851 15.7505 10.7598 14.2337 10.7598Z" fill="#9B58FF"/>
<path d="M7.01441 3.1582V13.4816H4.45145L1.15625 3.1582H7.01441Z" fill="#9B58FF"/>
</g>
</svg>
