<svg width="42" height="33" viewBox="0 0 42 33" fill="none" xmlns="http://www.w3.org/2000/svg">
<g clip-path="url(#clip0_2007_172)">
<path d="M41.4155 21.2583V20.7637H41.2923L41.1486 21.0934L41.0048 20.7637H40.8816V21.2583H40.9637V20.8873L41.1075 21.2171H41.2102L41.3539 20.8873V21.2583H41.4155ZM40.5941 21.2583V20.8461H40.7584V20.7637H40.3477V20.8461H40.5119V21.2583H40.5941Z" fill="#00A2E5"/>
<path d="M26.813 23.3808H15.7031V3.34766H26.813V23.3808Z" fill="#9192D0"/>
<path d="M16.4237 13.3641C16.4237 9.30387 18.313 5.67647 21.2702 3.34751C19.1139 1.63686 16.3826 0.626953 13.4255 0.626953C6.42279 0.626953 0.734375 6.336 0.734375 13.3641C0.734375 20.3922 6.42279 26.1012 13.4255 26.1012C16.3826 26.1012 19.1139 25.0913 21.2702 23.3807C18.313 21.0517 16.4237 17.4243 16.4237 13.3641Z" fill="#DB3346"/>
<path d="M41.8053 13.3641C41.8053 20.3922 36.1169 26.1012 29.1142 26.1012C26.157 26.1012 23.4258 25.0913 21.2695 23.3807C24.2267 21.0517 26.116 17.4243 26.116 13.3641C26.116 9.30387 24.2267 5.67647 21.2695 3.34751C23.4258 1.63686 26.157 0.626953 29.1142 0.626953C36.1169 0.626953 41.8053 6.336 41.8053 13.3641Z" fill="#32B6ED"/>
<path d="M30.553 29.0488C30.6967 29.0488 30.9226 29.0694 31.0664 29.1312L30.8405 29.832C30.6762 29.7701 30.5324 29.7495 30.3887 29.7495C29.9164 29.7495 29.6699 30.0587 29.6699 30.6151V32.5113H28.9307V29.1312H29.6494V29.5434C29.8548 29.2343 30.1423 29.0488 30.553 29.0488ZM27.8423 29.7907H26.6512V31.3159C26.6512 31.6457 26.7744 31.8724 27.144 31.8724C27.3289 31.8724 27.5753 31.8105 27.8012 31.6869L28.0065 32.3258C27.7806 32.4907 27.411 32.5937 27.0824 32.5937C26.2199 32.5937 25.9119 32.1197 25.9119 31.3365V29.7907H25.2342V29.1106H25.9119V28.0801H26.6512V29.1106H27.8423V29.7907ZM18.4574 30.5121C18.5395 30.0174 18.827 29.6877 19.361 29.6877C19.8333 29.6877 20.1413 29.9762 20.2235 30.5121H18.4574ZM20.9833 30.8212C20.9833 29.7701 20.3262 29.0488 19.3815 29.0488C18.3958 29.0488 17.6976 29.7701 17.6976 30.8212C17.6976 31.893 18.4163 32.5937 19.4226 32.5937C19.936 32.5937 20.3878 32.4701 20.7985 32.1197L20.4288 31.5838C20.1413 31.8105 19.7922 31.9342 19.4431 31.9342C18.9708 31.9342 18.5395 31.7075 18.4369 31.1098H20.9422C20.9628 31.0067 20.9833 30.9243 20.9833 30.8212ZM24.2074 29.9968C24.0021 29.8732 23.5913 29.7083 23.1601 29.7083C22.7494 29.7083 22.5235 29.8526 22.5235 30.0999C22.5235 30.3266 22.7699 30.3884 23.0985 30.4297L23.4476 30.4709C24.1869 30.5739 24.6181 30.8831 24.6181 31.4808C24.6181 32.1197 24.0637 32.5937 23.078 32.5937C22.5235 32.5937 22.0101 32.4495 21.6199 32.1609L21.969 31.5838C22.2155 31.7693 22.5851 31.9342 23.0985 31.9342C23.5914 31.9342 23.8583 31.7899 23.8583 31.522C23.8583 31.3365 23.6735 31.2335 23.2628 31.1716L22.9137 31.1304C22.1538 31.0273 21.7431 30.677 21.7431 30.1411C21.7431 29.461 22.2976 29.0488 23.1396 29.0488C23.6735 29.0488 24.1664 29.1724 24.5155 29.3991L24.2074 29.9968ZM33.2432 29.7289C33.0994 29.7289 32.9557 29.7495 32.8325 29.8113C32.7092 29.8732 32.586 29.935 32.5039 30.0381C32.4217 30.1411 32.3396 30.2442 32.278 30.3884C32.2164 30.5121 32.1958 30.677 32.1958 30.8212C32.1958 30.9861 32.2164 31.1304 32.278 31.2541C32.3396 31.3777 32.4012 31.5014 32.5039 31.6044C32.6066 31.7075 32.7092 31.7693 32.8325 31.8311C32.9557 31.893 33.0994 31.9136 33.2432 31.9136C33.3869 31.9136 33.5307 31.893 33.6539 31.8311C33.7771 31.7693 33.9003 31.7075 33.9825 31.6044C34.0851 31.5014 34.1467 31.3983 34.2083 31.2541C34.27 31.1304 34.2905 30.9655 34.2905 30.8212C34.2905 30.6564 34.27 30.5121 34.2083 30.3884C34.1467 30.2648 34.0851 30.1411 33.9825 30.0381C33.8798 29.935 33.7771 29.8732 33.6539 29.8113C33.5307 29.7701 33.3869 29.7289 33.2432 29.7289ZM33.2432 29.0488C33.5101 29.0488 33.7566 29.09 33.9619 29.193C34.1878 29.2755 34.3726 29.3991 34.5369 29.564C34.7012 29.7289 34.8244 29.9144 34.9271 30.1205C35.0092 30.3472 35.0709 30.5739 35.0709 30.8212C35.0709 31.0686 35.0298 31.3159 34.9271 31.522C34.845 31.7487 34.7012 31.9342 34.5369 32.0785C34.3726 32.2434 34.1878 32.367 33.9619 32.4495C33.736 32.5319 33.4896 32.5937 33.2432 32.5937C32.9762 32.5937 32.7298 32.5525 32.5244 32.4495C32.2985 32.367 32.1137 32.2434 31.9494 32.0785C31.7851 31.9136 31.6619 31.7281 31.5592 31.522C31.4771 31.2953 31.4155 31.0686 31.4155 30.8212C31.4155 30.5739 31.4566 30.3266 31.5592 30.1205C31.6414 29.8938 31.7851 29.7083 31.9494 29.564C32.1137 29.3991 32.2985 29.2755 32.5244 29.193C32.7298 29.09 32.9762 29.0488 33.2432 29.0488ZM14.186 30.8212C14.186 30.2235 14.5761 29.7289 15.2127 29.7289C15.8288 29.7289 16.219 30.2029 16.219 30.8212C16.219 31.4396 15.8083 31.893 15.2127 31.893C14.5761 31.893 14.186 31.4189 14.186 30.8212ZM16.9172 30.8212V29.1312H16.1779V29.5434C15.952 29.2343 15.6029 29.0488 15.1101 29.0488C14.1654 29.0488 13.4261 29.7907 13.4261 30.8212C13.4261 31.8518 14.1654 32.5937 15.1101 32.5937C15.5824 32.5937 15.9315 32.4082 16.1779 32.0991V32.5113H16.9172V30.8212ZM12.7895 32.5113V30.3884C12.7895 29.5846 12.2761 29.0488 11.4547 29.0488C11.0235 29.0488 10.5717 29.1724 10.2636 29.6465C10.0377 29.2755 9.66809 29.0488 9.15469 29.0488C8.80559 29.0488 8.43594 29.1518 8.16898 29.5434V29.1312H7.42969V32.5113H8.16898V30.6358C8.16898 30.0587 8.49755 29.7289 8.99041 29.7289C9.48327 29.7289 9.7297 30.0381 9.7297 30.6151V32.4907H10.469V30.6151C10.469 30.0381 10.8181 29.7083 11.2904 29.7083C11.7833 29.7083 12.0297 30.0174 12.0297 30.5945V32.4701H12.7895V32.5113Z" fill="white"/>
<path d="M35.85 32.2423V32.3248H35.9321C35.9527 32.3248 35.9732 32.3248 35.9732 32.3042C35.9937 32.3042 35.9937 32.2836 35.9937 32.2629C35.9937 32.2423 35.9937 32.2423 35.9732 32.2423C35.9732 32.2423 35.9527 32.2217 35.9321 32.2217H35.85V32.2423ZM35.9321 32.2011C35.9732 32.2011 35.9937 32.2011 36.0143 32.2217C36.0348 32.2423 36.0554 32.2629 36.0554 32.3042C36.0554 32.3248 36.0554 32.3454 36.0348 32.366C36.0143 32.3866 35.9937 32.3866 35.9527 32.3866L36.0554 32.5103H35.9732L35.8705 32.3866H35.85V32.5103H35.7884V32.2011H35.9321ZM35.9116 32.6133C35.9527 32.6133 35.9732 32.6133 36.0143 32.5927C36.0554 32.5721 36.0759 32.5515 36.0964 32.5309C36.117 32.5103 36.1375 32.4897 36.158 32.4484C36.1786 32.4072 36.1786 32.3866 36.1786 32.3454C36.1786 32.3042 36.1786 32.2836 36.158 32.2423C36.1375 32.2011 36.117 32.1805 36.0964 32.1599C36.0759 32.1393 36.0554 32.1187 36.0143 32.0981C35.9937 32.0775 35.9527 32.0775 35.9116 32.0775C35.8705 32.0775 35.85 32.0775 35.8089 32.0981C35.7679 32.1187 35.7473 32.1393 35.7268 32.1599C35.7062 32.1805 35.6857 32.2217 35.6652 32.2423C35.6446 32.2836 35.6446 32.3042 35.6446 32.3454C35.6446 32.3866 35.6446 32.4072 35.6652 32.4484C35.6857 32.4897 35.7062 32.5103 35.7268 32.5309C35.7473 32.5515 35.7884 32.5721 35.8089 32.5927C35.85 32.6133 35.8705 32.6133 35.9116 32.6133ZM35.9116 32.0156C35.9527 32.0156 35.9937 32.0156 36.0348 32.0362C36.0759 32.0568 36.117 32.0775 36.1375 32.0981C36.158 32.1187 36.1991 32.1599 36.2196 32.2011C36.2402 32.2423 36.2402 32.2836 36.2402 32.3248C36.2402 32.366 36.2402 32.4072 36.2196 32.4484C36.1991 32.4897 36.1786 32.5309 36.1375 32.5515C36.0964 32.5721 36.0759 32.6133 36.0348 32.6339C35.9937 32.6545 35.9527 32.6545 35.9116 32.6545C35.8705 32.6545 35.8089 32.6545 35.7679 32.6339C35.7268 32.6133 35.6857 32.5927 35.6652 32.5515C35.6446 32.5309 35.6036 32.4897 35.583 32.4484C35.5625 32.4072 35.5625 32.366 35.5625 32.3248C35.5625 32.2836 35.5625 32.2423 35.583 32.2011C35.6036 32.1599 35.6241 32.1187 35.6652 32.0981C35.6857 32.0775 35.7268 32.0362 35.7679 32.0362C35.8089 32.0156 35.8705 32.0156 35.9116 32.0156Z" fill="white"/>
</g>
<defs>
<clipPath id="clip0_2007_172">
<rect width="42" height="33" fill="white"/>
</clipPath>
</defs>
</svg>
