<svg width="43" height="33" viewBox="0 0 43 33" fill="none" xmlns="http://www.w3.org/2000/svg">
<g clip-path="url(#clip0_2007_153)">
<mask id="mask0_2007_153" style="mask-type:luminance" maskUnits="userSpaceOnUse" x="0" y="0" width="43" height="33">
<path d="M42.0325 0.626953H0.960938V32.6966H42.0325V0.626953Z" fill="white"/>
</mask>
<g mask="url(#mask0_2007_153)">
<path d="M8.40483 32.6256V30.4973C8.40483 29.6832 7.91157 29.15 7.06482 29.15C6.64145 29.15 6.18108 29.2906 5.86457 29.7534C5.61794 29.3649 5.26445 29.15 4.7342 29.15C4.3807 29.15 4.0272 29.2575 3.74769 29.646V29.2203H3.00781V32.6256H3.74769V30.7452C3.74769 30.1419 4.0642 29.8567 4.55745 29.8567C5.0507 29.8567 5.29733 30.1749 5.29733 30.7452V32.6256H6.03721V30.7452C6.03721 30.1419 6.39071 29.8567 6.84697 29.8567C7.34022 29.8567 7.58685 30.1749 7.58685 30.7452V32.6256H8.40483ZM19.3797 29.2203H18.1795V28.1913H17.4396V29.2203H16.7696V29.8939H17.4396V31.4561C17.4396 32.2371 17.7561 32.6959 18.6028 32.6959C18.9193 32.6959 19.2728 32.5884 19.5195 32.4479L19.3057 31.8073C19.092 31.9479 18.8454 31.985 18.6686 31.985C18.3151 31.985 18.1754 31.7701 18.1754 31.4189V29.8939H19.3756V29.2203H19.3797ZM25.6605 29.1459C25.2371 29.1459 24.9535 29.3608 24.7767 29.6418V29.2162H24.0368V32.6215H24.7767V30.7039C24.7767 30.1377 25.0234 29.8154 25.4837 29.8154C25.6235 29.8154 25.8002 29.8526 25.9441 29.8857L26.1578 29.1748C26.0099 29.1459 25.8002 29.1459 25.6605 29.1459ZM16.1695 29.5013C15.816 29.2534 15.3227 29.1459 14.7925 29.1459C13.9457 29.1459 13.3826 29.5716 13.3826 30.2452C13.3826 30.8114 13.806 31.1337 14.5458 31.237L14.8993 31.2742C15.2857 31.3445 15.4995 31.4519 15.4995 31.6296C15.4995 31.8776 15.2158 32.0553 14.7226 32.0553C14.2293 32.0553 13.8388 31.8776 13.5922 31.6999L13.2387 32.2661C13.6251 32.5512 14.1553 32.6917 14.6856 32.6917C15.6721 32.6917 16.2393 32.2289 16.2393 31.5924C16.2393 30.9891 15.779 30.6709 15.0761 30.5634L14.7226 30.5262C14.4061 30.489 14.1594 30.4188 14.1594 30.208C14.1594 29.96 14.4061 29.8195 14.7966 29.8195C15.2199 29.8195 15.6433 29.9972 15.8571 30.1047L16.1695 29.5013ZM35.8544 29.1459C35.431 29.1459 35.1474 29.3608 34.9706 29.6418V29.2162H34.2307V32.6215H34.9706V30.7039C34.9706 30.1377 35.2173 29.8154 35.6776 29.8154C35.8174 29.8154 35.9941 29.8526 36.138 29.8857L36.3517 29.1831C36.2079 29.1459 35.9982 29.1459 35.8544 29.1459ZM26.4004 30.923C26.4004 31.952 27.1073 32.6959 28.2007 32.6959C28.694 32.6959 29.0475 32.5884 29.401 32.3074L29.0475 31.704C28.7639 31.9189 28.4843 32.0222 28.1637 32.0222C27.5636 32.0222 27.1402 31.5966 27.1402 30.923C27.1402 30.2824 27.5636 29.8567 28.1637 29.8237C28.4802 29.8237 28.7639 29.9311 29.0475 30.1419L29.401 29.5385C29.0475 29.2534 28.694 29.15 28.2007 29.15C27.1073 29.1459 26.4004 29.8939 26.4004 30.923ZM33.2442 30.923V29.2203H32.5044V29.646C32.2577 29.3277 31.9042 29.15 31.4439 29.15C30.4902 29.15 29.7504 29.8939 29.7504 30.923C29.7504 31.952 30.4902 32.6959 31.4439 32.6959C31.9371 32.6959 32.2906 32.5182 32.5044 32.1999V32.6256H33.2442V30.923ZM30.5272 30.923C30.5272 30.3196 30.9136 29.8237 31.5507 29.8237C32.1509 29.8237 32.5742 30.2865 32.5742 30.923C32.5742 31.5263 32.1509 32.0222 31.5507 32.0222C30.9177 31.985 30.5272 31.5222 30.5272 30.923ZM21.6733 29.1459C20.6868 29.1459 19.9798 29.8567 19.9798 30.9188C19.9798 31.985 20.6868 32.6917 21.7103 32.6917C22.2036 32.6917 22.6968 32.5512 23.0873 32.2289L22.7338 31.6958C22.4502 31.9107 22.0967 32.0512 21.7473 32.0512C21.287 32.0512 20.8307 31.8363 20.7238 31.237H23.2271C23.2271 31.1296 23.2271 31.0593 23.2271 30.9519C23.26 29.8567 22.6229 29.1459 21.6733 29.1459ZM21.6733 29.7865C22.1337 29.7865 22.4502 30.0716 22.5201 30.6006H20.7567C20.8266 30.1419 21.1431 29.7865 21.6733 29.7865ZM40.0552 30.923V27.873H39.3154V29.646C39.0687 29.3277 38.7152 29.15 38.2549 29.15C37.3013 29.15 36.5614 29.8939 36.5614 30.923C36.5614 31.952 37.3013 32.6959 38.2549 32.6959C38.7481 32.6959 39.1016 32.5182 39.3154 32.1999V32.6256H40.0552V30.923ZM37.3382 30.923C37.3382 30.3196 37.7246 29.8237 38.3617 29.8237C38.9619 29.8237 39.3852 30.2865 39.3852 30.923C39.3852 31.5263 38.9619 32.0222 38.3617 32.0222C37.7246 31.985 37.3382 31.5222 37.3382 30.923ZM12.5687 30.923V29.2203H11.8288V29.646C11.5822 29.3277 11.2287 29.15 10.7683 29.15C9.81471 29.15 9.07483 29.8939 9.07483 30.923C9.07483 31.952 9.81471 32.6959 10.7683 32.6959C11.2616 32.6959 11.6151 32.5182 11.8288 32.1999V32.6256H12.5687V30.923ZM9.81882 30.923C9.81882 30.3196 10.2052 29.8237 10.8423 29.8237C11.4424 29.8237 11.8658 30.2865 11.8658 30.923C11.8658 31.5263 11.4424 32.0222 10.8423 32.0222C10.2052 31.985 9.81882 31.5222 9.81882 30.923Z" fill="white"/>
<path d="M27.0365 3.35938H15.9219V23.4359H27.0365V3.35938Z" fill="#FF7428"/>
<path d="M16.6628 13.3969C16.6628 9.31797 18.5701 5.69775 21.4967 3.35865C19.3428 1.65599 16.6258 0.626953 13.6622 0.626953C6.64157 0.626953 0.960938 6.33831 0.960938 13.3969C0.960938 20.4555 6.64157 26.1669 13.6622 26.1669C16.6258 26.1669 19.3428 25.1379 21.4967 23.4352C18.566 21.1292 16.6628 17.4759 16.6628 13.3969Z" fill="#DB3346"/>
<path d="M42.0319 13.3969C42.0319 20.4555 36.3512 26.1669 29.3306 26.1669C26.367 26.1669 23.65 25.1379 21.4961 23.4352C24.4597 21.092 26.33 17.4759 26.33 13.3969C26.33 9.31797 24.4227 5.69775 21.4961 3.35865C23.6459 1.65599 26.3629 0.626953 29.3265 0.626953C36.3512 0.626953 42.0319 6.37551 42.0319 13.3969Z" fill="#FFB13E"/>
</g>
</g>
<defs>
<clipPath id="clip0_2007_153">
<rect width="43" height="33" fill="white"/>
</clipPath>
</defs>
</svg>
