<svg width="64" height="30" viewBox="0 0 64 30" fill="none" xmlns="http://www.w3.org/2000/svg">
<mask id="mask0_2007_164" style="mask-type:luminance" maskUnits="userSpaceOnUse" x="0" y="0" width="64" height="30">
<path d="M63.1602 0.576172H0.273438V29.1424H63.1602V0.576172Z" fill="white"/>
</mask>
<g mask="url(#mask0_2007_164)">
<path d="M31.0938 16.733H32.071V18.9233H32.7771L34.0442 16.733H35.1126L33.5918 19.3036V19.3216L35.2032 22.1269H34.0987L32.7951 19.7734H32.0896V22.1269H31.1118V16.7324L31.0938 16.733ZM37.3935 18.1632C38.5693 18.1632 39.5292 19.0139 39.5292 20.1903C39.5292 21.3853 38.5879 22.218 37.4115 22.218C36.2344 22.218 35.2932 21.3853 35.2932 20.1903C35.2752 18.9959 36.2164 18.1632 37.3935 18.1632ZM40.2893 18.2532H41.2125V21.2947H42.4256V18.2538H43.3483V21.2947H44.5613V18.2538H45.4846V22.1269H40.3253V18.2532H40.2893ZM48.2183 18.1632C49.3222 18.1632 49.9377 18.9779 49.9377 19.9917C49.9347 20.119 49.9227 20.2459 49.9017 20.3715H47.2405C47.2951 21.041 47.82 21.4033 48.3995 21.4033C48.7973 21.4033 49.1956 21.2222 49.5034 20.987L49.8837 21.6751C49.4854 22.0183 48.8879 22.236 48.3269 22.236C47.0413 22.236 46.2452 21.3127 46.2452 20.2083C46.2452 18.9959 47.0593 18.1632 48.2183 18.1632ZM50.3901 21.3127C50.861 21.2402 51.2048 20.8424 51.2048 19.4662V18.2538H54.0291V22.1269H53.0693V19.0313H52.128V19.4656C52.128 21.149 51.6757 22.1269 50.3901 22.1629V21.3127ZM56.7804 18.1632C57.8842 18.1632 58.4997 18.9779 58.4997 19.9917C58.4967 20.119 58.4847 20.2459 58.4637 20.3715H55.8025C55.8571 21.041 56.382 21.4033 56.9615 21.4033C57.3593 21.4033 57.7576 21.2222 58.0654 20.987L58.4457 21.6751C58.0474 22.0183 57.4499 22.236 56.8889 22.236C55.6039 22.236 54.8072 21.3127 54.8072 20.2083C54.8072 18.9959 55.6219 18.1632 56.7804 18.1632ZM59.2964 18.2532H60.2557V19.738H60.7266L61.6679 18.2538H62.7357L61.5047 20.0997V20.1183L62.8803 22.1269H61.7584L60.7446 20.5526H60.2382V22.1269H59.2778V18.2532H59.2964ZM37.3935 21.3853C38.027 21.3853 38.5519 20.8964 38.5519 20.1723C38.5519 19.4662 38.027 18.9593 37.3929 18.9593C36.7599 18.9593 36.253 19.4488 36.253 20.1723C36.253 20.8964 36.7594 21.3853 37.3935 21.3853ZM48.9604 19.702C48.9604 19.195 48.6161 18.8873 48.1818 18.8873C47.6934 18.8873 47.3311 19.213 47.2405 19.702H48.9604ZM57.5225 19.702C57.5225 19.195 57.1787 18.8873 56.7443 18.8873C56.2549 18.8873 55.8931 19.213 55.8025 19.702H57.5225Z" fill="white"/>
<path d="M44.6144 4.98427V14.1258C44.6151 14.1592 44.6091 14.1925 44.5966 14.2236C44.5842 14.2546 44.5656 14.2829 44.5419 14.3065C44.5182 14.3302 44.49 14.3488 44.459 14.3613C44.4279 14.3737 44.3946 14.3797 44.3612 14.379H42.4966C42.4632 14.3797 42.4299 14.3737 42.3988 14.3613C42.3678 14.3488 42.3396 14.3302 42.3159 14.3065C42.2922 14.2829 42.2736 14.2546 42.2612 14.2236C42.2487 14.1925 42.2427 14.1592 42.2435 14.1258V4.98427C42.2427 4.95081 42.2487 4.91754 42.2612 4.88648C42.2736 4.85541 42.2922 4.8272 42.3159 4.80353C42.3396 4.77987 42.3678 4.76124 42.3988 4.74879C42.4299 4.73634 42.4632 4.73032 42.4966 4.73109H44.3612C44.3946 4.73032 44.4279 4.73634 44.459 4.74879C44.49 4.76124 44.5182 4.77987 44.5419 4.80353C44.5656 4.8272 44.5842 4.85541 44.5966 4.88648C44.6091 4.91754 44.6151 4.95081 44.6144 4.98427ZM59.1683 4.73109C59.2409 4.73109 59.3315 4.7671 59.4215 4.83968C59.4761 4.89369 59.4761 4.98427 59.4581 5.05685L56.3805 14.2164C56.3618 14.2638 56.3295 14.3046 56.2877 14.3336C56.2458 14.3626 56.1963 14.3786 56.1453 14.3795H54.48C54.3714 14.3795 54.2808 14.325 54.2448 14.2164L52.4517 8.8765L50.6597 14.2158C50.6411 14.2632 50.6088 14.304 50.5669 14.333C50.525 14.3621 50.4755 14.3781 50.4246 14.379H48.7592C48.6506 14.379 48.56 14.325 48.524 14.2158L45.4465 5.05629C45.4285 4.98427 45.4285 4.91169 45.4825 4.83968C45.5191 4.7671 45.6096 4.73109 45.6817 4.73109H47.7634C47.8719 4.73109 47.9625 4.80311 47.9991 4.91169L49.6459 10.3241L51.4564 4.91169C51.4751 4.86429 51.5074 4.82349 51.5493 4.79445C51.5911 4.76541 51.6407 4.74943 51.6916 4.74853H53.1578C53.2664 4.74853 53.357 4.80311 53.393 4.91169L55.2035 10.3241L56.8509 4.91169C56.8656 4.86042 56.8964 4.81522 56.9388 4.78272C56.9811 4.75022 57.0327 4.73213 57.086 4.73109H59.1683ZM62.3179 4.73109C62.4445 4.73109 62.5531 4.83968 62.5711 4.98427V14.1258C62.5718 14.1592 62.5658 14.1925 62.5534 14.2236C62.5409 14.2546 62.5223 14.2829 62.4986 14.3065C62.475 14.3302 62.4467 14.3488 62.4157 14.3613C62.3846 14.3737 62.3513 14.3797 62.3179 14.379H60.4534C60.4199 14.3797 60.3866 14.3737 60.3556 14.3613C60.3245 14.3488 60.2963 14.3302 60.2726 14.3065C60.2489 14.2829 60.2303 14.2546 60.2179 14.2236C60.2054 14.1925 60.1994 14.1592 60.2002 14.1258V4.98427C60.1994 4.95081 60.2054 4.91754 60.2179 4.88648C60.2303 4.85541 60.2489 4.8272 60.2726 4.80353C60.2963 4.77987 60.3245 4.76124 60.3556 4.74879C60.3866 4.73634 60.4199 4.73032 60.4534 4.73109H62.3179ZM41.157 14.0538C41.2656 14.1804 41.175 14.361 41.0119 14.361H38.731C38.6861 14.3622 38.6415 14.353 38.6007 14.3342C38.5599 14.3153 38.524 14.2874 38.4958 14.2524L38.116 13.782C37.3194 14.2884 36.3775 14.5967 35.3822 14.5967C32.595 14.5967 30.3321 12.3338 30.3321 9.54603C30.3321 6.75822 32.595 4.49535 35.3822 4.49535C38.1701 4.49535 40.4329 6.75822 40.4329 9.54603C40.4329 10.5419 40.1432 11.4831 39.6363 12.2793L41.157 14.0538ZM22.0953 18.4884C22.5662 18.6695 22.7474 19.3751 22.7834 19.6828C22.856 20.2443 22.6934 20.4615 22.5122 20.4615C22.3311 20.4615 22.0773 20.2443 21.8061 19.81C21.5344 19.3751 21.4258 18.8867 21.571 18.633C21.661 18.4698 21.8595 18.3978 22.0953 18.4884ZM19.3441 20.5341C19.6338 20.5341 19.9596 20.6607 20.2493 20.9138C20.8103 21.3848 20.9734 21.9277 20.6837 22.326C20.5205 22.5252 20.2493 22.6518 19.9416 22.6518C19.6338 22.6518 19.3081 22.5432 19.0909 22.344C18.584 21.9097 18.4394 21.185 18.7646 20.7873C18.8917 20.6241 19.0909 20.5341 19.3441 20.5341ZM13.0089 25.7654C6.12973 25.7654 0.554688 20.1898 0.554688 13.3111C0.554688 6.43247 6.13029 0.857422 13.0084 0.857422C19.887 0.857422 25.4626 6.43303 25.4626 13.3111C25.4626 15.646 24.8111 17.8369 23.7072 19.7014C23.6707 19.7554 23.5801 19.7374 23.5621 19.6648C23.1277 16.6058 21.2632 14.9219 18.548 14.4155C18.3122 14.379 18.2762 14.2344 18.584 14.1984C19.4167 14.1258 20.5931 14.1438 21.2086 14.2524C21.2446 13.9446 21.2632 13.6189 21.2632 13.2931C21.2632 8.74935 17.5701 5.05629 13.0264 5.05629C8.48319 5.05629 4.79012 8.74935 4.79012 13.2931C4.79012 17.8369 8.48319 21.5299 13.0269 21.5299H13.4067C13.2777 20.795 13.223 20.0489 13.2436 19.3031C13.2621 18.7961 13.3707 18.7236 13.5879 19.1219C14.7283 21.095 16.3577 22.869 19.5433 23.5751C22.1499 24.1546 24.7565 24.8241 27.5623 28.39C27.8155 28.6978 27.4357 29.0235 27.146 28.7703C24.2862 26.2357 21.6795 25.403 19.3081 25.403C16.6469 25.4216 14.8374 25.7654 13.0089 25.7654ZM36.6313 12.0261L35.6354 10.8131C35.5274 10.6865 35.618 10.4873 35.7806 10.4873H37.8803C37.9889 10.1975 38.0435 9.87179 38.0435 9.54603C38.0435 8.04382 36.921 6.74022 35.3822 6.74022C33.844 6.74022 32.721 8.04382 32.721 9.54603C32.721 11.0482 33.844 12.3338 35.3822 12.3338C35.8166 12.3518 36.2515 12.2252 36.6313 12.0261Z" fill="#FF8C00"/>
</g>
</svg>
