<svg width="68" height="20" viewBox="0 0 68 20" fill="none" xmlns="http://www.w3.org/2000/svg">
<g clip-path="url(#clip0_2007_138)">
<path d="M17.0806 4.2168C17.5119 4.78193 17.8771 5.3959 18.1686 6.04638L9.89795 12.2252L6.44141 10.0293V7.38749L9.89795 9.58341L17.0806 4.2168Z" fill="#4CCF64"/>
<path d="M2.91402 9.84218C2.91402 9.72363 2.91687 9.60588 2.92258 9.4888L0.827815 9.38477C0.820685 9.53651 0.816409 9.68971 0.816409 9.84432C0.815518 11.0524 1.04998 12.2487 1.50636 13.3647C1.96273 14.4807 2.63203 15.4944 3.47586 16.3476L4.96173 14.8424C4.31218 14.1868 3.79689 13.4075 3.44547 12.5494C3.09406 11.6913 2.91345 10.7712 2.91402 9.84218Z" fill="url(#paint0_linear_2007_138)"/>
<path d="M9.89706 2.76503C10.014 2.76503 10.1302 2.76937 10.2457 2.77514L10.3505 0.65147C10.2003 0.644244 10.0491 0.640632 9.89706 0.640632C8.70446 0.639158 7.5234 0.876435 6.42159 1.33884C5.31978 1.80124 4.31895 2.47967 3.47656 3.33515L4.96243 4.84102C5.60939 4.18251 6.3784 3.6601 7.22527 3.30383C8.07213 2.94755 8.98009 2.76444 9.89706 2.76503Z" fill="url(#paint1_linear_2007_138)"/>
<path d="M9.89556 16.919C9.77864 16.919 9.66241 16.919 9.54622 16.9096L9.44141 19.0325C9.59208 19.0403 9.74348 19.0441 9.89556 19.0441C11.0876 19.0454 12.2681 18.8079 13.3694 18.3454C14.4706 17.8829 15.4708 17.2044 16.3125 16.3489L14.8295 14.8438C14.1824 15.5019 13.4135 16.024 12.5668 16.3802C11.7201 16.7363 10.8123 16.9194 9.89556 16.919Z" fill="url(#paint2_linear_2007_138)"/>
<path d="M13.8331 4.00066L15.5985 2.68194C13.9849 1.35777 11.9708 0.636949 9.89453 0.640639V2.76576C11.3005 2.76399 12.6738 3.19459 13.8331 4.00066Z" fill="url(#paint3_linear_2007_138)"/>
<path d="M18.9751 9.8423C18.9763 9.28946 18.9286 8.73759 18.8325 8.19336L16.8782 9.65297C16.8782 9.71588 16.8782 9.77872 16.8782 9.8423C16.8788 10.831 16.6742 11.8088 16.278 12.7122C15.8818 13.6157 15.3026 14.4247 14.5781 15.0868L15.9877 16.6657C16.9296 15.8039 17.6823 14.7512 18.1969 13.5758C18.7116 12.4003 18.9767 11.1283 18.9751 9.8423Z" fill="#58D16E"/>
<path d="M9.89683 16.919C8.92118 16.9193 7.95634 16.712 7.06475 16.3104C6.1732 15.9089 5.37479 15.322 4.72123 14.5879L3.16406 16.0157C4.01427 16.9704 5.05299 17.7334 6.21286 18.2551C7.37273 18.7767 8.62783 19.0456 9.89683 19.044V16.919Z" fill="url(#paint4_linear_2007_138)"/>
<path d="M5.21413 4.59643L3.80526 3.01758C2.8631 3.87917 2.11015 4.93184 1.59525 6.10732C1.08035 7.28279 0.815002 8.55482 0.816412 9.84093H2.91403C2.91359 8.85228 3.11812 7.8745 3.51435 6.97104C3.91059 6.0676 4.48968 5.25858 5.21413 4.59643Z" fill="url(#paint5_linear_2007_138)"/>
<path d="M53.214 5.90409L55.8119 3.98633H47.1172V15.5104H55.8119V13.5927H49.5981V10.6408H54.8987V8.723H49.5981V5.90409H53.214Z" fill="#4CCF64"/>
<path d="M41.2676 8.4745H38.249V5.90211H43.0666L45.6629 3.97852H35.7695V15.5026H40.9483C43.8518 15.5026 45.5181 14.1841 45.5181 11.8845C45.5181 9.68459 44.0088 8.4745 41.2676 8.4745ZM40.8366 13.5843H38.249V10.3911H40.8366C42.407 10.3911 43.1433 10.9262 43.1433 11.9877C43.1433 13.0491 42.3599 13.5843 40.8366 13.5843Z" fill="#4CCF64"/>
<path d="M62.2015 3.98438H57.4688V15.5084H59.9494V12.2439H62.2015C65.2212 12.2439 67.0891 10.6518 67.0891 8.10797C67.0891 5.5642 65.2212 3.98438 62.2015 3.98438ZM62.1492 10.3247H59.9494V5.9036H62.1492C63.7375 5.9036 64.6141 6.68915 64.6141 8.115C64.6141 9.54086 63.7375 10.3247 62.1492 10.3247Z" fill="#4CCF64"/>
<path d="M32.0463 12.7884C31.4055 13.1361 30.6875 13.3162 29.9589 13.3119C27.7779 13.3119 26.1958 11.7518 26.1958 9.60351C26.1958 7.45519 27.7779 5.8917 29.9589 5.8917C30.7454 5.87832 31.5155 6.11728 32.1569 6.57372L33.8921 5.29325L33.7748 5.2097C32.7625 4.31799 31.4101 3.8457 29.8619 3.8457C28.1828 3.8457 26.6602 4.41176 25.5731 5.44158C25.0234 5.97182 24.5887 6.6099 24.296 7.31599C24.0033 8.02208 23.8589 8.78101 23.8719 9.5455C23.8603 10.3178 24.004 11.0844 24.2945 11.7998C24.5851 12.5152 25.0164 13.1645 25.5629 13.7091C26.6551 14.7799 28.1743 15.3698 29.8415 15.3698C31.5836 15.3698 33.1062 14.7611 34.1371 13.6529L32.5839 12.4935L32.0463 12.7884Z" fill="#4CCF64"/>
</g>
<defs>
<linearGradient id="paint0_linear_2007_138" x1="3.90009" y1="16.0824" x2="1.55324" y2="9.38825" gradientUnits="userSpaceOnUse">
<stop offset="0.14" stop-color="#F1E813"/>
<stop offset="0.3" stop-color="#E6E418"/>
<stop offset="0.58" stop-color="#C9DA26"/>
<stop offset="0.89" stop-color="#A2CC39"/>
</linearGradient>
<linearGradient id="paint1_linear_2007_138" x1="4.07547" y1="3.7109" x2="9.9981" y2="1.48383" gradientUnits="userSpaceOnUse">
<stop offset="0.06" stop-color="#0FA7DF"/>
<stop offset="0.54" stop-color="#0098F8"/>
<stop offset="0.92" stop-color="#47B8FF"/>
</linearGradient>
<linearGradient id="paint2_linear_2007_138" x1="9.30311" y1="17.7615" x2="15.9866" y2="16.2717" gradientUnits="userSpaceOnUse">
<stop offset="0.12" stop-color="#A2CC39"/>
<stop offset="0.28" stop-color="#86C239"/>
<stop offset="0.87" stop-color="#58D16E"/>
</linearGradient>
<linearGradient id="paint3_linear_2007_138" x1="9.45822" y1="1.35238" x2="15.1781" y2="3.09408" gradientUnits="userSpaceOnUse">
<stop offset="0.06" stop-color="#47B8FF"/>
<stop offset="0.79" stop-color="#47B8FF"/>
</linearGradient>
<linearGradient id="paint4_linear_2007_138" x1="3.69025" y1="15.757" x2="9.92198" y2="18.0551" gradientUnits="userSpaceOnUse">
<stop offset="0.13" stop-color="#F1E813"/>
<stop offset="0.3" stop-color="#EAE616"/>
<stop offset="0.53" stop-color="#D8DF1F"/>
<stop offset="0.8" stop-color="#BAD52D"/>
<stop offset="0.98" stop-color="#A2CC39"/>
</linearGradient>
<linearGradient id="paint5_linear_2007_138" x1="1.59785" y1="10.0982" x2="4.14983" y2="3.54769" gradientUnits="userSpaceOnUse">
<stop offset="0.07" stop-color="#A2CC39"/>
<stop offset="0.26" stop-color="#81C45E"/>
<stop offset="0.92" stop-color="#0FA7DF"/>
</linearGradient>
<clipPath id="clip0_2007_138">
<rect width="68" height="20" fill="white"/>
</clipPath>
</defs>
</svg>
