<svg width="52" height="18" viewBox="0 0 52 18" fill="none" xmlns="http://www.w3.org/2000/svg">
<g clip-path="url(#clip0_2007_126)">
<mask id="mask0_2007_126" style="mask-type:luminance" maskUnits="userSpaceOnUse" x="0" y="0" width="52" height="18">
<path d="M51.8903 0.503906H0.128906V17.3826H51.8903V0.503906Z" fill="white"/>
</mask>
<g mask="url(#mask0_2007_126)">
<path d="M22.5602 17.1398H18.3672L20.9898 0.800781H25.1826L22.5602 17.1398Z" fill="#35A4FF"/>
<path d="M37.7577 1.19952C36.9306 0.868927 35.6188 0.503906 33.9968 0.503906C29.8561 0.503906 26.9402 2.72868 26.9223 5.90944C26.8879 8.2562 29.01 9.55965 30.5971 10.3421C32.2194 11.1417 32.7708 11.6636 32.7708 12.3763C32.7543 13.4709 31.46 13.9755 30.2527 13.9755C28.5787 13.9755 27.6817 13.7153 26.3186 13.1064L25.7664 12.8453L25.1797 16.5131C26.1631 16.9645 27.975 17.3651 29.8561 17.3826C34.2557 17.3826 37.12 15.1923 37.1539 11.8027C37.1707 9.94269 36.0501 8.51749 33.6343 7.35289C32.1678 6.60529 31.2697 6.10119 31.2697 5.33627C31.2869 4.64088 32.0293 3.92863 33.6848 3.92863C35.0479 3.89374 36.0495 4.22388 36.8082 4.55425L37.1874 4.72775L37.7577 1.19952Z" fill="#35A4FF"/>
<path d="M43.3311 11.3515C43.6764 10.4128 45.0051 6.77995 45.0051 6.77995C44.9877 6.81484 45.3497 5.82397 45.5568 5.21568L45.8498 6.62355C45.8498 6.62355 46.6439 10.5346 46.8163 11.3515C46.161 11.3515 44.1593 11.3515 43.3311 11.3515ZM48.5068 0.800781H45.2635C44.2634 0.800781 43.5035 1.09603 43.072 2.15644L36.8438 17.1396H41.2434C41.2434 17.1396 41.9677 15.123 42.1234 14.6887C42.6061 14.6887 46.886 14.6887 47.5069 14.6887C47.6273 15.2623 48.0072 17.1396 48.0072 17.1396H51.8896L48.5068 0.800781Z" fill="#35A4FF"/>
<path d="M14.864 0.800781L10.7576 11.9425L10.3089 9.68279C9.54969 7.07544 7.16874 4.2426 4.51172 2.83404L8.273 17.1225H12.707L19.2978 0.800781H14.864Z" fill="#35A4FF"/>
<path d="M6.94411 0.800781H0.197922L0.128906 1.13092C5.39136 2.48681 8.87657 5.75512 10.3085 9.68348L8.84195 2.17423C8.60051 1.13069 7.85852 0.835204 6.94411 0.800781Z" fill="#FFAE27"/>
</g>
</g>
<defs>
<clipPath id="clip0_2007_126">
<rect width="52" height="18" fill="white"/>
</clipPath>
</defs>
</svg>
