<svg width="72" height="72" viewBox="0 0 72 72" fill="none" xmlns="http://www.w3.org/2000/svg">
<path d="M67.4813 2.15698C67.4813 0.992045 66.5369 0.0476074 65.3719 0.0476074H51.8157C50.6507 0.0476074 49.7063 0.992045 49.7063 2.15698V11.6445H67.4813V2.15698ZM44.8875 2.15698C44.8875 0.992045 43.9431 0.0476074 42.7781 0.0476074H29.2219C28.0569 0.0476074 27.1125 0.992045 27.1125 2.15698V11.6445H44.8875V2.15698ZM22.2937 2.15698C22.2937 0.992045 21.3493 0.0476074 20.1843 0.0476074H6.62808C5.46314 0.0476074 4.5187 0.992045 4.5187 2.15698V11.6445H22.2937V2.15698ZM2.10938 20.082H69.8906C71.0556 20.082 72 19.1376 72 17.9727C72 16.8077 71.0556 15.8633 69.8906 15.8633H2.10938C-0.664313 15.9567 -0.704531 19.9719 2.10938 20.082ZM51.8157 24.9007C50.6507 24.9007 49.7063 25.8451 49.7063 27.0101V36.4976H67.4813V27.0101C67.4813 25.8451 66.5369 24.9007 65.3719 24.9007H51.8157ZM29.2219 24.9007C28.0569 24.9007 27.1125 25.8451 27.1125 27.0101V36.4976H44.8875V27.0101C44.8875 25.8451 43.9431 24.9007 42.7781 24.9007H29.2219ZM6.62808 24.9007C5.46314 24.9007 4.5187 25.8451 4.5187 27.0101V36.4976H22.2937V27.0101C22.2937 25.8451 21.3493 24.9007 20.1843 24.9007H6.62808ZM69.8906 40.7164H66.0052C67.9067 41.6993 69.6277 42.9977 71.0949 44.5563C72.7689 43.396 71.9566 40.7217 69.8906 40.7164ZM48.7969 40.7164H2.10938C0.944437 40.7164 0 41.6608 0 42.8257C0 43.9907 0.944437 44.9351 2.10938 44.9351H43.3602C44.8995 43.2086 46.7422 41.7787 48.7969 40.7164ZM57.401 42.8496C49.3511 42.8496 42.802 49.3987 42.802 57.4485C43.5361 76.7896 71.269 76.7843 72 57.4485C72 49.3987 65.451 42.8496 57.401 42.8496ZM63.2724 56.0199L57.4331 61.8592C56.6094 62.683 55.2741 62.683 54.4503 61.8595L51.5301 58.9404C49.627 56.8927 52.4623 54.0534 54.5126 55.9567L55.9413 57.3848L60.2895 53.0368C62.3384 51.1334 65.1756 53.9712 63.2724 56.0199Z" fill="#FAB700"/>
</svg>
