<svg width="72" height="72" viewBox="0 0 72 72" fill="none" xmlns="http://www.w3.org/2000/svg">
<path d="M67.6209 56.1739C67.6209 55.009 68.5654 54.0645 69.7303 54.0645H72C71.6252 51.2374 70.5075 48.6419 68.8507 46.4802C66.8004 48.3895 63.9588 45.546 65.8676 43.4971C63.7059 41.8402 61.1106 40.7226 58.2834 40.3478V42.6177C58.2834 43.7826 57.339 44.727 56.1741 44.727C55.0091 44.727 54.0647 43.7826 54.0647 42.6177V40.3478C51.2347 40.723 48.637 41.8424 46.474 43.5021C48.1198 45.5143 45.5123 48.1192 43.5022 46.4739C41.8425 48.6368 40.7232 51.2346 40.348 54.0645H42.6178C43.7828 54.0645 44.7272 55.009 44.7272 56.1739C44.7272 57.3389 43.7828 58.2833 42.6178 58.2833H40.348C40.7232 61.1131 41.8425 63.7109 43.5022 65.8738C45.5144 64.2279 48.1192 66.8355 46.474 68.8458C48.637 70.5054 51.2347 71.6248 54.0647 72V69.7302C54.0647 68.5652 55.0091 67.6208 56.1741 67.6208C57.339 67.6208 58.2834 68.5652 58.2834 69.7302V72C61.1132 71.6248 63.711 70.5054 65.8741 68.8458C64.2282 66.8334 66.8355 64.2288 68.8461 65.8738C70.5057 63.7109 71.6251 61.1131 72.0003 58.2832H69.7306C68.5652 58.2833 67.6209 57.3389 67.6209 56.1739ZM63.314 52.017L57.6655 57.6655C57.2536 58.0774 56.7138 58.2834 56.1741 58.2834C55.6343 58.2834 55.0943 58.0776 54.6826 57.6655L51.2935 54.2765C49.3909 52.2285 52.2267 49.3896 54.2766 51.2934L56.1741 53.1908L60.3311 49.034C62.38 47.1305 65.2172 49.9684 63.314 52.017ZM20.0344 4.21875H33.8906V9.03755H38.1094V2.10938C38.1094 0.944437 37.1649 0 36 0H17.925C16.7601 0 15.8157 0.944437 15.8157 2.10938V9.03755H20.0344V4.21875Z" fill="#FAB700"/>
<path d="M53.925 36.115V29.8075C50.6123 32.8324 47.1434 33.4754 42.6282 33.2905C42.675 36.2849 38.3618 36.2832 38.4095 33.2905H15.5157C15.5625 36.2849 11.2493 36.2832 11.297 33.2905C6.77559 33.4749 3.31481 32.8324 0 29.8075V51.8156C0 52.9806 0.944437 53.925 2.10938 53.925H36.115C37.1517 44.5746 44.5746 37.1517 53.925 36.115ZM8.8875 29.0718H11.2968C11.25 26.0774 15.5631 26.0791 15.5156 29.0718H38.4093C38.3625 26.0774 42.6756 26.0791 42.6281 29.0718H45.0374C49.9534 29.0718 53.9249 25.0935 53.9249 20.1843V15.3655C53.9249 14.2005 52.9805 13.2561 51.8155 13.2561H2.10938C0.944437 13.2561 0 14.2005 0 15.3655V20.1843C0 25.1002 3.97828 29.0718 8.8875 29.0718Z" fill="#FAB700"/>
</svg>
