<svg width="72" height="70" viewBox="0 0 72 70" fill="none" xmlns="http://www.w3.org/2000/svg">
<path d="M39.7961 21.3668C38.5341 21.3993 37.4692 20.1478 37.7167 18.9006L38.5595 13.9871L34.9895 10.5071C34.7077 10.2323 34.5083 9.8842 34.4139 9.50205C34.3196 9.11989 34.334 8.71895 34.4557 8.34458C34.5773 7.97021 34.8013 7.63735 35.1022 7.38362C35.4032 7.1299 35.7691 6.96544 36.1586 6.90884L41.0923 6.1919L43.2987 1.72131C43.4729 1.36834 43.7424 1.07115 44.0767 0.863343C44.411 0.655539 44.7968 0.54541 45.1904 0.54541C45.584 0.54541 45.9698 0.655539 46.3041 0.863343C46.6383 1.07115 46.9078 1.36834 47.082 1.72131L49.2883 6.1919L54.222 6.90884C54.6115 6.96546 54.9774 7.12993 55.2784 7.38367C55.5793 7.6374 55.8032 7.97027 55.9249 8.34464C56.0465 8.719 56.0609 9.11993 55.9666 9.50208C55.8722 9.88422 55.6728 10.2323 55.3909 10.5071L51.821 13.9871L52.6636 18.9006C52.7302 19.2886 52.6869 19.6875 52.5386 20.0521C52.3903 20.4167 52.1429 20.7326 51.8244 20.964C51.506 21.1954 51.1291 21.333 50.7365 21.3614C50.3439 21.3897 49.9512 21.3077 49.6027 21.1245L45.1901 18.8046L40.7773 21.1245C40.4747 21.2836 40.138 21.3668 39.7961 21.3668ZM52.8491 42.7267C51.5872 42.7592 50.5223 41.5077 50.7697 40.2606L51.8255 34.1053L47.3535 29.7461C47.0716 29.4714 46.8723 29.1233 46.7779 28.7412C46.6836 28.359 46.698 27.9581 46.8197 27.5838C46.9413 27.2094 47.1652 26.8766 47.4661 26.6229C47.767 26.3692 48.1329 26.2047 48.5224 26.148L54.7025 25.2501L57.4663 19.6499C57.6404 19.297 57.9099 18.9998 58.2442 18.7919C58.5785 18.5841 58.9643 18.474 59.3579 18.474C59.7515 18.474 60.1373 18.5841 60.4716 18.7919C60.8059 18.9997 61.0754 19.2968 61.2496 19.6498L64.0134 25.25L70.1936 26.1479C70.5831 26.2045 70.949 26.369 71.2499 26.6227C71.5508 26.8765 71.7747 27.2093 71.8963 27.5836C72.0179 27.958 72.0324 28.3589 71.938 28.741C71.8437 29.1231 71.6444 29.4713 71.3625 29.746L66.8905 34.1052L67.9462 40.2604C68.0127 40.6484 67.9693 41.0472 67.821 41.4118C67.6726 41.7763 67.4253 42.0922 67.1068 42.3235C66.7884 42.5548 66.4116 42.6925 66.019 42.7209C65.6265 42.7493 65.2338 42.6674 64.8854 42.4843L59.3576 39.5782L53.83 42.4843C53.5276 42.6436 53.1909 42.7269 52.8491 42.7267ZM53.6227 49.455C52.3391 47.4208 50.137 46.2028 47.7318 46.1969L42.2623 46.1803L43.2074 42.1067C43.6116 40.3648 43.3042 38.5757 42.3413 37.0688C41.0618 34.9867 38.649 33.8632 36.2354 34.1364C35.9692 34.1365 35.7084 34.2121 35.4834 34.3544C35.2584 34.4968 35.0784 34.7001 34.9644 34.9407L31.9077 41.3935C31.0954 43.1077 29.8407 44.5743 28.273 45.6422L21.9803 49.927V69.4544H41.9613C45.4702 69.4544 48.7083 67.4053 50.2104 64.2342L54.0282 56.1753C55.0581 54.0016 54.9064 51.4893 53.6227 49.455ZM9.89242 49.929C9.1157 49.929 8.48608 50.5586 8.48608 51.3353V68.0382C8.48608 68.8149 9.1157 69.4445 9.89242 69.4445H17.7614V49.929H9.89242Z" fill="#FAB700"/>
<path d="M19.8913 25.304C25.0966 25.304 29.3163 21.0843 29.3163 15.8791C29.3163 10.6738 25.0966 6.4541 19.8913 6.4541C14.686 6.4541 10.4663 10.6738 10.4663 15.8791C10.4663 21.0843 14.686 25.304 19.8913 25.304Z" fill="#FAB700"/>
<path d="M19.8913 29.5229C17.7383 29.5229 15.7007 29.0209 13.8881 28.1289C7.91202 28.664 2.9599 33.1248 1.88054 39.1285L0.0376839 49.3782C-0.0451491 49.8386 0.006182 50.3187 0.215444 50.7371C0.390287 51.0889 0.659813 51.3849 0.993703 51.5918C1.32759 51.7987 1.7126 51.9084 2.10541 51.9084H5.67356V47.8194C5.67356 46.6544 6.61805 45.7099 7.78306 45.7099H20.6774L25.8987 42.1547C26.846 41.5094 27.6041 40.6232 28.095 39.5874L31.1518 33.1343C31.5726 32.2459 32.216 31.5026 32.9942 30.9537C30.9943 29.3783 28.5446 28.3674 25.8928 28.1297C24.0805 29.0212 22.0436 29.5229 19.8913 29.5229Z" fill="#FAB700"/>
</svg>
