<svg width="72" height="72" viewBox="0 0 72 72" fill="none" xmlns="http://www.w3.org/2000/svg">
<path d="M50.2383 28.4062C47.617 28.4062 45.4922 30.5311 45.4922 33.1523V28.9336C45.4922 26.3123 43.3673 24.1875 40.7461 24.1875C38.1248 24.1875 36 26.3123 36 28.9336V26.1211C36 23.4998 33.8752 21.375 31.2539 21.375C28.6327 21.375 26.5078 23.4998 26.5078 26.1211V38.6016C26.5078 35.3008 23.832 32.625 20.5312 32.625C18.5896 32.625 17.0156 34.199 17.0156 36.1406V50.4408C17.0156 55.826 19.6816 60.9151 24.0469 64.0003V69.8906C24.0469 71.0556 24.9913 72 26.1562 72H45.8438C47.0087 72 47.9531 71.0556 47.9531 69.8906V64.0003C52.3184 60.9152 54.9844 55.826 54.9844 50.4408V33.1523C54.9844 30.5311 52.8595 28.4062 50.2383 28.4062Z" fill="#FAB700"/>
<path d="M25.6412 13.5446L32.5569 6.62871C29.276 4.81873 25.4275 4.14007 21.6872 4.78287L17.5222 0.617836C16.6984 -0.205945 15.3629 -0.205945 14.5391 0.617836L0.617775 14.539C-0.206006 15.3628 -0.206006 16.6983 0.617775 17.5221L4.78281 21.6871C3.87774 26.9554 5.59098 32.439 9.39896 36.247L12.7969 39.6449V36.1407C12.7969 31.876 16.2665 28.4063 20.5313 28.4063C21.1309 28.4063 21.7176 28.4613 22.2891 28.5611V23.8809C21.6954 20.167 22.8803 16.3055 25.6412 13.5446ZM71.3822 14.539L57.4611 0.617836C56.6373 -0.205945 55.3018 -0.205945 54.478 0.617836L50.3128 4.78301C45.0447 3.87766 39.5609 5.59104 35.7529 9.39916L28.6244 16.5279C28.1835 16.9688 27.7974 17.4613 27.4746 17.9947C28.6577 17.4416 29.9479 17.1554 31.2539 17.1563C34.0064 17.1563 36.4719 18.4042 38.1177 20.3627C38.9693 20.1011 39.8552 19.9684 40.7461 19.9688C44.022 19.9688 46.8917 21.7359 48.4559 24.3662C49.0426 24.2473 49.6397 24.1875 50.2383 24.1876C55.1815 24.1876 59.2031 28.2092 59.2031 33.1524V39.6449L62.6009 36.247C66.4089 32.439 68.1221 26.9555 67.2171 21.6871L71.3821 17.5221C72.2059 16.6984 72.2059 15.3628 71.3822 14.539Z" fill="#FAB700"/>
</svg>
